{"glyphs":{"0":{"ha":689,"x_min":60,"x_max":629,"o":"m 60 140 l 60 485 l 179 425 l 179 140 l 119 81 l 60 140 m 60 515 l 60 860 l 119 919 l 179 860 l 179 585 l 60 515 m 139 939 l 200 1000 l 490 1000 l 551 939 l 490 881 l 200 881 l 139 939 m 510 585 l 510 860 l 569 919 l 629 860 l 629 515 l 510 585 m 510 140 l 510 425 l 629 485 l 629 140 l 569 81 l 510 140 m 139 61 l 200 119 l 490 119 l 551 61 l 490 0 l 200 0 l 139 61 z "},"1":{"ha":689,"x_min":285,"x_max":404,"o":"m 285 585 l 285 881 l 404 1000 l 404 515 l 285 585 m 285 119 l 285 425 l 404 485 l 404 0 l 285 119 z "},"2":{"ha":689,"x_min":60,"x_max":629,"o":"m 60 140 l 60 485 l 179 425 l 179 140 l 119 81 l 60 140 m 60 881 l 200 1000 l 490 1000 l 551 939 l 490 881 l 60 881 m 510 585 l 510 860 l 569 919 l 629 860 l 629 515 l 510 585 m 139 61 l 200 119 l 515 119 l 629 0 l 200 0 l 139 61 m 88 500 l 200 565 l 490 565 l 603 500 l 490 444 l 200 444 l 88 500 z "},"3":{"ha":689,"x_min":35,"x_max":579,"o":"m 35 1000 l 440 1000 l 501 939 l 440 881 l 150 881 l 35 1000 m 460 585 l 460 860 l 519 919 l 579 860 l 579 515 l 460 585 m 460 140 l 460 425 l 579 485 l 579 140 l 519 81 l 460 140 m 35 0 l 150 119 l 440 119 l 501 61 l 440 0 l 35 0 m 38 500 l 150 565 l 440 565 l 553 500 l 440 444 l 150 444 l 38 500 z "},"4":{"ha":689,"x_min":60,"x_max":629,"o":"m 60 515 l 60 1000 l 179 881 l 179 585 l 60 515 m 510 585 l 510 881 l 629 1000 l 629 515 l 510 585 m 510 119 l 510 425 l 629 485 l 629 0 l 510 119 m 88 500 l 200 565 l 490 565 l 603 500 l 490 444 l 200 444 l 88 500 z "},"5":{"ha":689,"x_min":60,"x_max":629,"o":"m 60 515 l 60 860 l 119 919 l 179 860 l 179 585 l 60 515 m 139 939 l 200 1000 l 604 1000 l 490 881 l 200 881 l 139 939 m 510 140 l 510 425 l 629 485 l 629 140 l 569 81 l 510 140 m 60 0 l 175 119 l 490 119 l 551 61 l 490 0 l 60 0 m 88 500 l 200 565 l 490 565 l 603 500 l 490 444 l 200 444 l 88 500 z "},"6":{"ha":689,"x_min":60,"x_max":629,"o":"m 60 140 l 60 485 l 179 425 l 179 140 l 119 81 l 60 140 m 60 515 l 60 860 l 119 919 l 179 860 l 179 585 l 60 515 m 139 939 l 200 1000 l 604 1000 l 490 881 l 200 881 l 139 939 m 510 140 l 510 425 l 629 485 l 629 140 l 569 81 l 510 140 m 139 61 l 200 119 l 490 119 l 551 61 l 490 0 l 200 0 l 139 61 m 88 500 l 200 565 l 490 565 l 603 500 l 490 444 l 200 444 l 88 500 z "},"7":{"ha":690,"x_min":0,"x_max":550,"o":"m 431 585 l 431 860 l 550 981 l 550 515 l 431 585 m 431 119 l 431 425 l 550 485 l 550 0 l 431 119 m 0 1000 l 531 1000 l 410 881 l 119 881 l 0 1000 z "},"8":{"ha":689,"x_min":60,"x_max":629,"o":"m 60 140 l 60 485 l 179 425 l 179 140 l 119 81 l 60 140 m 60 515 l 60 860 l 119 919 l 179 860 l 179 585 l 60 515 m 139 939 l 200 1000 l 490 1000 l 551 939 l 490 881 l 200 881 l 139 939 m 510 585 l 510 860 l 569 919 l 629 860 l 629 515 l 510 585 m 510 140 l 510 425 l 629 485 l 629 140 l 569 81 l 510 140 m 139 61 l 200 119 l 490 119 l 551 61 l 490 0 l 200 0 l 139 61 m 88 500 l 200 565 l 490 565 l 603 500 l 490 444 l 200 444 l 88 500 z "},"9":{"ha":689,"x_min":60,"x_max":629,"o":"m 510 575 l 510 860 l 569 919 l 629 860 l 629 515 l 510 575 m 510 140 l 510 415 l 629 485 l 629 140 l 569 81 l 510 140 m 85 0 l 200 119 l 490 119 l 551 61 l 490 0 l 85 0 m 60 515 l 60 860 l 119 919 l 179 860 l 179 575 l 60 515 m 139 939 l 200 1000 l 490 1000 l 551 939 l 490 881 l 200 881 l 139 939 m 88 500 l 200 565 l 490 565 l 603 500 l 490 444 l 200 444 l 88 500 z "},"ý":{"ha":0,"x_min":0,"x_max":0,"o":""},"Ł":{"ha":0,"x_min":0,"x_max":0,"o":""}," ":{"ha":403,"x_min":0,"x_max":0,"o":""},"!":{"ha":239,"x_min":60,"x_max":179,"o":"m 60 0 l 60 215 l 179 215 l 179 0 l 60 0 m 60 385 l 60 881 l 179 1000 l 179 294 l 60 385 z "},"\"":{"ha":399,"x_min":69,"x_max":329,"o":"m 69 688 l 69 1000 l 157 1000 l 157 688 l 69 688 m 242 688 l 242 1000 l 329 1000 l 329 688 l 242 688 z "},"#":{"ha":811,"x_min":69,"x_max":742,"o":"m 69 318 l 83 381 l 243 381 l 293 619 l 133 619 l 146 682 l 307 682 l 368 978 l 431 978 l 369 682 l 519 682 l 581 978 l 643 978 l 582 682 l 742 682 l 728 619 l 568 619 l 518 381 l 678 381 l 664 318 l 504 318 l 442 22 l 379 22 l 442 318 l 292 318 l 229 22 l 167 22 l 229 318 l 69 318 m 306 381 l 456 381 l 506 619 l 356 619 l 306 381 z "},"$":{"ha":689,"x_min":60,"x_max":629,"o":"m 60 515 l 60 860 l 119 919 l 179 860 l 179 585 l 60 515 m 88 500 l 200 565 l 490 565 l 603 500 l 490 444 l 200 444 l 88 500 m 510 140 l 510 425 l 629 485 l 629 140 l 569 81 l 510 140 m 288 -110 l 288 -15 l 347 33 l 408 -17 l 408 -117 l 349 -167 l 288 -110 m 69 0 l 200 119 l 493 119 l 553 63 l 494 0 l 422 0 l 347 65 l 279 0 l 69 0 m 144 942 l 201 1000 l 279 1000 l 347 932 l 418 1000 l 572 1000 l 525 881 l 201 881 l 144 942 m 289 1022 l 289 1114 l 347 1174 l 408 1118 l 408 1022 l 346 965 l 289 1022 z "},"%":{"ha":1263,"x_min":31,"x_max":1232,"o":"m 31 625 l 31 861 l 93 919 l 154 860 l 154 625 l 93 565 l 31 625 m 113 938 l 172 1000 l 413 1000 l 471 938 l 411 881 l 172 881 l 113 938 m 432 625 l 432 861 l 490 921 l 551 863 l 551 626 l 490 565 l 432 625 m 111 544 l 174 608 l 411 608 l 471 544 l 411 490 l 172 490 l 111 544 m 618 594 l 864 1000 l 1004 1000 l 685 474 l 618 594 m 258 0 l 529 444 l 668 444 l 399 0 l 258 0 m 711 144 l 711 379 l 774 439 l 835 379 l 835 143 l 774 83 l 711 144 m 792 456 l 853 513 l 1092 513 l 1151 457 l 1090 392 l 853 392 l 792 456 m 1113 144 l 1113 379 l 1169 440 l 1232 381 l 1232 144 l 1171 85 l 1113 144 m 792 63 l 853 119 l 1090 119 l 1151 63 l 1092 0 l 851 0 l 792 63 z "},"&":{"ha":799,"x_min":60,"x_max":829,"o":"m 60 140 l 60 485 l 179 425 l 179 140 l 119 81 l 60 140 m 60 515 l 60 860 l 119 919 l 179 860 l 179 585 l 60 515 m 139 939 l 200 1000 l 490 1000 l 551 939 l 490 881 l 200 881 l 139 939 m 139 61 l 200 119 l 490 119 l 551 61 l 490 0 l 200 0 l 139 61 m 271 501 l 372 565 l 493 565 l 554 500 l 493 444 l 390 444 l 271 501 m 514 585 l 514 711 l 574 774 l 635 711 l 635 583 l 572 518 l 514 585 m 593 499 l 657 565 l 714 565 l 829 500 l 729 444 l 654 444 l 593 499 m 513 140 l 513 424 l 572 479 l 633 422 l 633 139 l 571 82 l 513 140 z "},"'":{"ha":254,"x_min":69,"x_max":185,"o":"m 69 688 l 97 1000 l 185 1000 l 157 688 l 69 688 z "},"(":{"ha":374,"x_min":60,"x_max":354,"o":"m 60 140 l 60 485 l 179 425 l 179 140 l 119 81 l 60 140 m 60 515 l 60 860 l 119 919 l 179 860 l 179 585 l 60 515 m 139 939 l 200 1000 l 354 1000 l 265 881 l 200 881 l 139 939 m 139 61 l 200 119 l 265 119 l 354 0 l 200 0 l 139 61 z "},")":{"ha":374,"x_min":19,"x_max":314,"o":"m 194 575 l 194 860 l 254 919 l 314 860 l 314 515 l 194 575 m 194 140 l 194 415 l 314 485 l 314 140 l 254 81 l 194 140 m 19 0 l 110 119 l 175 119 l 236 61 l 175 0 l 19 0 m 19 1000 l 175 1000 l 236 939 l 175 881 l 110 881 l 19 1000 z "},"*":{"ha":558,"x_min":31,"x_max":528,"o":"m 31 607 l 39 683 l 208 782 l 263 742 l 263 675 l 100 578 l 31 607 m 294 674 l 294 744 l 351 778 l 518 686 l 528 614 l 467 578 l 294 674 m 219 813 l 219 993 l 281 1039 l 342 992 l 342 810 l 281 765 l 219 813 z "},"+":{"ha":690,"x_min":58,"x_max":632,"o":"m 58 440 l 114 560 l 264 560 l 326 501 l 263 440 l 58 440 m 369 500 l 428 560 l 632 560 l 578 440 l 424 440 l 369 500 m 283 217 l 283 419 l 344 481 l 403 419 l 403 271 l 283 217 m 282 582 l 282 731 l 403 785 l 403 581 l 344 519 l 282 582 z "},",":{"ha":200,"x_min":-19,"x_max":169,"o":"m -19 -131 l 46 215 l 169 215 l 104 -131 l -19 -131 z "},"-":{"ha":476,"x_min":31,"x_max":446,"o":"m 31 300 l 111 419 l 446 419 l 365 300 l 31 300 z "},"­":{"ha":476,"x_min":31,"x_max":446,"o":"m 31 300 l 111 419 l 446 419 l 365 300 l 31 300 z "},".":{"ha":181,"x_min":31,"x_max":150,"o":"m 31 0 l 31 215 l 150 215 l 150 0 l 31 0 z "},"/":{"ha":807,"x_min":31,"x_max":776,"o":"m 31 0 l 300 444 l 439 444 l 171 0 l 31 0 m 389 594 l 635 1000 l 776 1000 l 457 474 l 389 594 z "},":":{"ha":190,"x_min":40,"x_max":160,"o":"m 40 0 l 40 215 l 160 215 l 160 0 l 40 0 m 40 444 l 40 650 l 160 650 l 160 444 l 40 444 z "},";":{"ha":200,"x_min":-19,"x_max":169,"o":"m -19 -131 l 46 215 l 169 215 l 104 -131 l -19 -131 m 44 444 l 44 650 l 164 650 l 164 444 l 44 444 z "},"<":{"ha":724,"x_min":69,"x_max":654,"o":"m 69 500 l 654 831 l 654 732 l 233 500 l 654 268 l 654 169 l 69 500 z "},"=":{"ha":689,"x_min":60,"x_max":629,"o":"m 60 346 l 118 467 l 629 467 l 571 346 l 60 346 m 60 538 l 118 657 l 629 657 l 571 538 l 60 538 z "},">":{"ha":724,"x_min":69,"x_max":654,"o":"m 69 169 l 69 268 l 490 500 l 69 732 l 69 831 l 654 500 l 69 169 z "},"?":{"ha":582,"x_min":31,"x_max":522,"o":"m 151 0 l 151 215 l 272 215 l 272 0 l 151 0 m 31 939 l 92 1000 l 382 1000 l 443 939 l 382 881 l 92 881 l 31 939 m 401 585 l 401 860 l 461 919 l 522 860 l 522 515 l 401 585 m 153 282 l 153 546 l 272 431 l 272 282 l 153 282 m 176 565 l 382 565 l 494 503 l 382 444 l 297 444 l 176 565 z "},"@":{"ha":1075,"x_min":81,"x_max":1001,"o":"m 628 319 q 585 253 619 293 q 485 213 550 213 q 383 245 453 213 q 314 475 314 278 l 319 525 q 369 678 333 613 q 457 783 404 744 q 563 821 510 821 q 681 746 642 821 l 686 732 l 700 814 l 767 814 l 713 513 l 694 389 q 692 365 692 378 q 692 346 692 351 q 701 288 692 319 q 756 257 711 257 q 780 263 765 257 q 813 283 794 268 q 857 326 832 297 q 900 403 882 356 q 924 492 918 451 q 932 553 931 532 q 933 593 933 574 q 835 858 933 757 q 582 960 736 960 q 548 958 567 960 q 447 944 529 956 q 261 803 365 932 q 157 497 157 674 q 157 471 157 483 q 162 430 160 453 q 165 402 164 407 q 189 306 165 397 q 322 126 213 215 q 568 38 432 38 q 744 75 682 38 q 817 119 807 113 q 864 157 826 126 q 933 231 901 188 l 964 188 l 929 149 q 563 -18 768 -18 q 216 138 351 -18 q 81 535 81 294 q 107 680 81 610 q 189 826 133 750 q 333 954 244 901 q 478 1013 422 1007 q 549 1020 535 1019 q 581 1021 563 1021 q 882 900 763 1021 q 1001 592 1001 779 q 1000 547 1001 569 q 986 447 999 524 q 910 290 974 369 q 803 206 846 211 q 746 200 761 200 q 657 235 692 200 q 628 319 622 269 m 390 404 q 395 356 390 378 q 416 301 400 335 q 489 267 432 267 q 550 290 526 267 q 585 335 574 314 q 608 385 597 356 q 630 456 619 414 q 644 518 640 499 l 647 533 l 656 592 q 660 644 660 624 q 638 720 660 679 q 563 761 617 761 q 502 740 531 761 q 454 685 474 718 q 421 610 435 653 q 401 531 407 568 q 392 467 394 494 q 390 404 390 440 z "},"A":{"ha":689,"x_min":60,"x_max":629,"o":"m 60 0 l 60 485 l 179 425 l 179 119 l 60 0 m 60 515 l 60 981 l 179 860 l 179 585 l 60 515 m 79 1000 l 610 1000 l 490 881 l 200 881 l 79 1000 m 510 585 l 510 860 l 629 981 l 629 515 l 510 585 m 510 119 l 510 425 l 629 485 l 629 0 l 510 119 m 88 500 l 200 565 l 490 565 l 603 500 l 490 444 l 200 444 l 88 500 z "},"B":{"ha":689,"x_min":60,"x_max":629,"o":"m 60 19 l 60 485 l 179 425 l 179 140 l 60 19 m 60 515 l 60 981 l 179 860 l 179 585 l 60 515 m 79 1000 l 490 1000 l 551 939 l 490 881 l 200 881 l 79 1000 m 510 585 l 510 860 l 569 919 l 629 860 l 629 515 l 510 585 m 510 140 l 510 425 l 629 485 l 629 140 l 569 81 l 510 140 m 79 0 l 200 119 l 490 119 l 551 61 l 490 0 l 79 0 m 88 500 l 200 565 l 490 565 l 603 500 l 490 444 l 200 444 l 88 500 z "},"C":{"ha":619,"x_min":60,"x_max":610,"o":"m 60 140 l 60 485 l 179 415 l 179 140 l 119 81 l 60 140 m 60 515 l 60 860 l 119 919 l 179 860 l 179 575 l 60 515 m 139 939 l 200 1000 l 610 1000 l 490 881 l 200 881 l 139 939 m 139 61 l 200 119 l 490 119 l 610 0 l 200 0 l 139 61 z "},"D":{"ha":689,"x_min":60,"x_max":629,"o":"m 60 19 l 60 485 l 179 425 l 179 140 l 60 19 m 60 515 l 60 981 l 179 860 l 179 585 l 60 515 m 79 1000 l 490 1000 l 551 939 l 490 881 l 200 881 l 79 1000 m 510 585 l 510 860 l 569 919 l 629 860 l 629 515 l 510 585 m 510 140 l 510 425 l 629 485 l 629 140 l 569 81 l 510 140 m 79 0 l 200 119 l 490 119 l 551 61 l 490 0 l 79 0 z "},"E":{"ha":619,"x_min":60,"x_max":610,"o":"m 60 19 l 60 485 l 179 425 l 179 140 l 60 19 m 60 515 l 60 981 l 179 860 l 179 585 l 60 515 m 79 1000 l 610 1000 l 490 881 l 200 881 l 79 1000 m 79 0 l 200 119 l 490 119 l 610 0 l 79 0 m 88 500 l 200 565 l 490 565 l 603 500 l 490 444 l 200 444 l 88 500 z "},"F":{"ha":610,"x_min":60,"x_max":610,"o":"m 60 0 l 60 485 l 179 425 l 179 119 l 60 0 m 60 515 l 60 981 l 179 860 l 179 585 l 60 515 m 79 1000 l 610 1000 l 490 881 l 200 881 l 79 1000 m 88 500 l 200 565 l 490 565 l 603 500 l 490 444 l 200 444 l 88 500 z "},"G":{"ha":689,"x_min":60,"x_max":629,"o":"m 60 140 l 60 485 l 179 425 l 179 140 l 119 81 l 60 140 m 60 515 l 60 860 l 119 919 l 179 860 l 179 585 l 60 515 m 139 939 l 200 1000 l 604 1000 l 490 881 l 200 881 l 139 939 m 510 140 l 510 425 l 629 485 l 629 140 l 569 81 l 510 140 m 139 61 l 200 119 l 490 119 l 551 61 l 490 0 l 200 0 l 139 61 m 267 500 l 379 565 l 490 565 l 603 500 l 490 444 l 379 444 l 267 500 z "},"H":{"ha":689,"x_min":60,"x_max":629,"o":"m 60 0 l 60 485 l 179 425 l 179 119 l 60 0 m 60 515 l 60 1000 l 179 881 l 179 585 l 60 515 m 510 585 l 510 881 l 629 1000 l 629 515 l 510 585 m 88 500 l 200 565 l 490 565 l 603 500 l 490 444 l 200 444 l 88 500 m 510 119 l 510 425 l 629 485 l 629 0 l 510 119 z "},"I":{"ha":239,"x_min":60,"x_max":179,"o":"m 60 585 l 60 881 l 179 1000 l 179 515 l 60 585 m 60 119 l 60 425 l 179 485 l 179 0 l 60 119 z "},"J":{"ha":689,"x_min":60,"x_max":629,"o":"m 60 19 l 60 485 l 179 425 l 179 140 l 60 19 m 510 585 l 510 881 l 629 1000 l 629 515 l 510 585 m 510 140 l 510 425 l 629 485 l 629 19 l 510 140 m 79 0 l 200 119 l 490 119 l 610 0 l 79 0 z "},"K":{"ha":689,"x_min":60,"x_max":629,"o":"m 60 0 l 60 485 l 179 425 l 179 119 l 60 0 m 60 515 l 60 1000 l 179 881 l 179 585 l 60 515 m 510 119 l 510 425 l 629 485 l 629 0 l 510 119 m 88 500 l 200 565 l 490 565 l 603 500 l 490 444 l 200 444 l 88 500 m 204 589 l 204 675 l 542 1000 l 629 1000 l 629 918 l 289 589 l 204 589 z "},"L":{"ha":669,"x_min":60,"x_max":629,"o":"m 60 19 l 60 485 l 179 425 l 179 140 l 60 19 m 60 515 l 60 1000 l 179 881 l 179 585 l 60 515 m 510 140 l 510 425 l 629 485 l 629 19 l 510 140 m 79 0 l 200 119 l 490 119 l 610 0 l 79 0 z "},"M":{"ha":1139,"x_min":60,"x_max":1079,"o":"m 60 0 l 60 485 l 179 425 l 179 119 l 60 0 m 60 515 l 60 981 l 179 860 l 179 585 l 60 515 m 79 1000 l 1060 1000 l 939 881 l 649 881 l 569 958 l 490 881 l 197 881 l 79 1000 m 960 585 l 960 860 l 1079 979 l 1079 515 l 960 585 m 960 119 l 960 425 l 1079 485 l 1079 0 l 960 119 m 510 553 l 510 863 l 569 924 l 629 860 l 629 553 l 569 507 l 510 553 m 510 100 l 510 431 l 569 485 l 629 431 l 629 100 l 569 0 l 510 100 z "},"N":{"ha":689,"x_min":60,"x_max":629,"o":"m 60 0 l 60 485 l 179 425 l 179 119 l 60 0 m 60 515 l 60 981 l 179 860 l 179 585 l 60 515 m 79 1000 l 610 1000 l 490 881 l 200 881 l 79 1000 m 510 585 l 510 860 l 629 981 l 629 515 l 510 585 m 510 119 l 510 425 l 629 485 l 629 0 l 510 119 z "},"O":{"ha":689,"x_min":60,"x_max":629,"o":"m 60 140 l 60 485 l 179 425 l 179 140 l 119 81 l 60 140 m 60 515 l 60 860 l 119 919 l 179 860 l 179 585 l 60 515 m 139 939 l 200 1000 l 490 1000 l 551 939 l 490 881 l 200 881 l 139 939 m 510 585 l 510 860 l 569 919 l 629 860 l 629 515 l 510 585 m 510 140 l 510 425 l 629 485 l 629 140 l 569 81 l 510 140 m 139 61 l 200 119 l 490 119 l 551 61 l 490 0 l 200 0 l 139 61 z "},"P":{"ha":689,"x_min":60,"x_max":629,"o":"m 60 0 l 60 485 l 179 425 l 179 119 l 60 0 m 60 515 l 60 981 l 179 860 l 179 585 l 60 515 m 79 1000 l 490 1000 l 551 939 l 490 881 l 200 881 l 79 1000 m 510 585 l 510 860 l 569 919 l 629 860 l 629 515 l 510 585 m 88 500 l 200 565 l 490 565 l 603 500 l 490 444 l 200 444 l 88 500 z "},"Q":{"ha":692,"x_min":60,"x_max":632,"o":"m 60 140 l 60 485 l 179 425 l 179 140 l 119 81 l 60 140 m 60 515 l 60 860 l 119 919 l 179 860 l 179 585 l 60 515 m 139 939 l 200 1000 l 490 1000 l 551 939 l 490 881 l 200 881 l 139 939 m 510 585 l 510 860 l 569 919 l 629 860 l 629 515 l 510 585 m 510 140 l 510 425 l 629 485 l 629 140 l 569 81 l 510 140 m 140 65 l 200 119 l 285 119 l 408 0 l 200 0 l 140 65 m 322 119 l 488 119 l 632 -17 l 632 -178 l 322 119 z "},"R":{"ha":692,"x_min":60,"x_max":717,"o":"m 60 19 l 60 485 l 179 425 l 179 140 l 60 19 m 60 515 l 60 981 l 179 860 l 179 585 l 60 515 m 79 1000 l 490 1000 l 551 939 l 490 881 l 200 881 l 79 1000 m 510 585 l 510 860 l 569 919 l 629 860 l 629 515 l 510 585 m 88 500 l 200 565 l 490 565 l 603 500 l 490 444 l 200 444 l 88 500 m 364 425 l 499 425 l 717 -1 l 508 139 l 364 425 z "},"S":{"ha":689,"x_min":60,"x_max":629,"o":"m 60 515 l 60 860 l 119 919 l 179 860 l 179 585 l 60 515 m 139 939 l 200 1000 l 629 1000 l 500 881 l 200 881 l 139 939 m 510 140 l 510 425 l 629 485 l 629 140 l 569 81 l 510 140 m 60 0 l 190 119 l 490 119 l 551 61 l 490 0 l 60 0 m 88 500 l 200 565 l 490 565 l 603 500 l 490 444 l 200 444 l 88 500 z "},"T":{"ha":571,"x_min":-10,"x_max":581,"o":"m 224 65 l 224 424 l 286 488 l 346 424 l 346 65 l 285 0 l 224 65 m 225 561 l 225 856 l 286 921 l 346 856 l 346 561 l 286 503 l 225 561 m -10 1000 l 581 1000 l 485 881 l 356 881 l 288 950 l 215 881 l 85 881 l -10 1000 z "},"U":{"ha":689,"x_min":60,"x_max":629,"o":"m 60 140 l 60 485 l 179 425 l 179 140 l 119 81 l 60 140 m 60 515 l 60 1000 l 179 885 l 179 585 l 60 515 m 510 585 l 510 885 l 629 1000 l 629 515 l 510 585 m 510 140 l 510 425 l 629 485 l 629 140 l 569 81 l 510 140 m 139 61 l 200 119 l 490 119 l 551 61 l 490 0 l 200 0 l 139 61 z "},"V":{"ha":692,"x_min":60,"x_max":632,"o":"m 60 515 l 60 981 l 179 860 l 179 585 l 60 515 m 510 585 l 510 860 l 629 981 l 629 515 l 510 585 m 60 499 l 217 457 l 331 250 l 331 -1 l 60 499 m 361 0 l 361 250 l 475 457 l 632 497 l 361 0 z "},"W":{"ha":1140,"x_min":60,"x_max":1081,"o":"m 960 575 l 960 881 l 1081 1000 l 1081 515 l 960 575 m 60 515 l 60 1000 l 181 881 l 181 575 l 60 515 m 510 569 l 510 900 l 569 1000 l 631 900 l 631 569 l 569 515 l 510 569 m 510 140 l 510 447 l 569 493 l 631 447 l 631 138 l 571 76 l 510 140 m 60 138 l 60 489 l 179 414 l 179 138 l 119 78 l 60 138 m 140 57 l 200 119 l 490 119 l 569 39 l 650 119 l 942 119 l 1003 60 l 943 0 l 199 0 l 140 57 m 961 138 l 961 415 l 1081 489 l 1081 138 l 1024 79 l 961 138 z "},"X":{"ha":607,"x_min":31,"x_max":576,"o":"m 31 0 l 31 101 l 228 486 l 290 486 l 290 344 l 115 0 l 31 0 m 31 906 l 31 1000 l 117 1000 l 290 653 l 290 514 l 228 514 l 31 906 m 318 514 l 318 653 l 493 1000 l 576 1000 l 576 901 l 381 514 l 318 514 m 318 344 l 318 486 l 381 486 l 576 99 l 576 0 l 490 0 l 318 344 z "},"Y":{"ha":689,"x_min":60,"x_max":629,"o":"m 286 69 l 286 418 l 408 418 l 408 69 l 344 0 l 286 69 m 88 500 l 200 565 l 490 565 l 603 500 l 490 444 l 200 444 l 88 500 m 60 515 l 60 1000 l 179 881 l 179 585 l 60 515 m 510 585 l 510 881 l 629 1000 l 629 515 l 510 585 z "},"Z":{"ha":588,"x_min":10,"x_max":578,"o":"m 164 0 l 222 119 l 433 119 l 554 0 l 164 0 m 10 0 l 214 458 l 356 486 l 140 0 l 10 0 m 286 633 l 447 1000 l 578 1000 l 364 507 l 286 633 m 32 1000 l 421 1000 l 369 881 l 151 881 l 32 1000 z "},"[":{"ha":369,"x_min":60,"x_max":360,"o":"m 60 19 l 60 485 l 179 425 l 179 140 l 60 19 m 60 515 l 60 981 l 179 860 l 179 585 l 60 515 m 79 0 l 200 119 l 240 119 l 360 0 l 79 0 m 79 1000 l 360 1000 l 240 881 l 200 881 l 79 1000 z "},"\\":{"ha":401,"x_min":69,"x_max":332,"o":"m 69 1000 l 157 1000 l 332 0 l 244 0 l 69 1000 z "},"]":{"ha":369,"x_min":10,"x_max":310,"o":"m 190 575 l 190 860 l 310 981 l 310 515 l 190 575 m 190 140 l 190 415 l 310 485 l 310 19 l 190 140 m 10 0 l 129 119 l 169 119 l 290 0 l 10 0 m 10 1000 l 290 1000 l 169 881 l 129 881 l 10 1000 z "},"^":{"ha":801,"x_min":69,"x_max":732,"o":"m 69 242 l 400 826 l 732 242 l 632 242 l 400 663 l 169 242 l 69 242 z "},"_":{"ha":639,"x_min":69,"x_max":569,"o":"m 69 -37 l 69 0 l 569 0 l 569 -37 l 69 -37 z "},"`":{"ha":221,"x_min":0,"x_max":221,"o":"m 0 703 l 131 703 l 221 503 l 90 503 l 0 703 z "},"a":{"ha":689,"x_min":60,"x_max":629,"o":"m 60 0 l 60 485 l 179 425 l 179 119 l 60 0 m 60 515 l 60 981 l 179 860 l 179 585 l 60 515 m 79 1000 l 610 1000 l 490 881 l 200 881 l 79 1000 m 510 585 l 510 860 l 629 981 l 629 515 l 510 585 m 510 119 l 510 425 l 629 485 l 629 0 l 510 119 m 88 500 l 200 565 l 490 565 l 603 500 l 490 444 l 200 444 l 88 500 z "},"b":{"ha":689,"x_min":60,"x_max":629,"o":"m 60 19 l 60 485 l 179 425 l 179 140 l 60 19 m 60 515 l 60 981 l 179 860 l 179 585 l 60 515 m 79 1000 l 490 1000 l 551 939 l 490 881 l 200 881 l 79 1000 m 510 585 l 510 860 l 569 919 l 629 860 l 629 515 l 510 585 m 510 140 l 510 425 l 629 485 l 629 140 l 569 81 l 510 140 m 79 0 l 200 119 l 490 119 l 551 61 l 490 0 l 79 0 m 88 500 l 200 565 l 490 565 l 603 500 l 490 444 l 200 444 l 88 500 z "},"c":{"ha":619,"x_min":60,"x_max":610,"o":"m 60 140 l 60 485 l 179 415 l 179 140 l 119 81 l 60 140 m 60 515 l 60 860 l 119 919 l 179 860 l 179 575 l 60 515 m 139 939 l 200 1000 l 610 1000 l 490 881 l 200 881 l 139 939 m 139 61 l 200 119 l 490 119 l 610 0 l 200 0 l 139 61 z "},"d":{"ha":689,"x_min":60,"x_max":629,"o":"m 60 19 l 60 485 l 179 425 l 179 140 l 60 19 m 60 515 l 60 981 l 179 860 l 179 585 l 60 515 m 79 1000 l 490 1000 l 551 939 l 490 881 l 200 881 l 79 1000 m 510 585 l 510 860 l 569 919 l 629 860 l 629 515 l 510 585 m 510 140 l 510 425 l 629 485 l 629 140 l 569 81 l 510 140 m 79 0 l 200 119 l 490 119 l 551 61 l 490 0 l 79 0 z "},"e":{"ha":619,"x_min":60,"x_max":610,"o":"m 60 19 l 60 485 l 179 425 l 179 140 l 60 19 m 60 515 l 60 981 l 179 860 l 179 585 l 60 515 m 79 1000 l 610 1000 l 490 881 l 200 881 l 79 1000 m 79 0 l 200 119 l 490 119 l 610 0 l 79 0 m 88 500 l 200 565 l 490 565 l 603 500 l 490 444 l 200 444 l 88 500 z "},"f":{"ha":610,"x_min":60,"x_max":610,"o":"m 60 0 l 60 485 l 179 425 l 179 119 l 60 0 m 60 515 l 60 981 l 179 860 l 179 585 l 60 515 m 79 1000 l 610 1000 l 490 881 l 200 881 l 79 1000 m 88 500 l 200 565 l 490 565 l 603 500 l 490 444 l 200 444 l 88 500 z "},"g":{"ha":689,"x_min":60,"x_max":629,"o":"m 60 140 l 60 485 l 179 425 l 179 140 l 119 81 l 60 140 m 60 515 l 60 860 l 119 919 l 179 860 l 179 585 l 60 515 m 139 939 l 200 1000 l 604 1000 l 490 881 l 200 881 l 139 939 m 510 140 l 510 425 l 629 485 l 629 140 l 569 81 l 510 140 m 139 61 l 200 119 l 490 119 l 551 61 l 490 0 l 200 0 l 139 61 m 267 500 l 379 565 l 490 565 l 603 500 l 490 444 l 379 444 l 267 500 z "},"h":{"ha":689,"x_min":60,"x_max":629,"o":"m 60 0 l 60 485 l 179 425 l 179 119 l 60 0 m 60 515 l 60 1000 l 179 881 l 179 585 l 60 515 m 510 585 l 510 881 l 629 1000 l 629 515 l 510 585 m 88 500 l 200 565 l 490 565 l 603 500 l 490 444 l 200 444 l 88 500 m 510 119 l 510 425 l 629 485 l 629 0 l 510 119 z "},"i":{"ha":239,"x_min":60,"x_max":179,"o":"m 60 585 l 60 881 l 179 1000 l 179 515 l 60 585 m 60 119 l 60 425 l 179 485 l 179 0 l 60 119 z "},"j":{"ha":689,"x_min":60,"x_max":629,"o":"m 60 19 l 60 485 l 179 425 l 179 140 l 60 19 m 510 585 l 510 881 l 629 1000 l 629 515 l 510 585 m 510 140 l 510 425 l 629 485 l 629 19 l 510 140 m 79 0 l 200 119 l 490 119 l 610 0 l 79 0 z "},"k":{"ha":689,"x_min":60,"x_max":629,"o":"m 60 0 l 60 485 l 179 425 l 179 119 l 60 0 m 60 515 l 60 1000 l 179 881 l 179 585 l 60 515 m 510 119 l 510 425 l 629 485 l 629 0 l 510 119 m 88 500 l 200 565 l 490 565 l 603 500 l 490 444 l 200 444 l 88 500 m 204 589 l 204 675 l 542 1000 l 629 1000 l 629 918 l 289 589 l 204 589 z "},"l":{"ha":669,"x_min":60,"x_max":629,"o":"m 60 19 l 60 485 l 179 425 l 179 140 l 60 19 m 60 515 l 60 1000 l 179 881 l 179 585 l 60 515 m 510 140 l 510 425 l 629 485 l 629 19 l 510 140 m 79 0 l 200 119 l 490 119 l 610 0 l 79 0 z "},"m":{"ha":1139,"x_min":60,"x_max":1079,"o":"m 60 0 l 60 485 l 179 425 l 179 119 l 60 0 m 60 515 l 60 981 l 179 860 l 179 585 l 60 515 m 79 1000 l 1060 1000 l 939 881 l 649 881 l 569 958 l 490 881 l 197 881 l 79 1000 m 960 585 l 960 860 l 1079 979 l 1079 515 l 960 585 m 960 119 l 960 425 l 1079 485 l 1079 0 l 960 119 m 510 553 l 510 863 l 569 924 l 629 860 l 629 553 l 569 507 l 510 553 m 510 100 l 510 431 l 569 485 l 629 431 l 629 100 l 569 0 l 510 100 z "},"n":{"ha":689,"x_min":60,"x_max":629,"o":"m 60 0 l 60 485 l 179 425 l 179 119 l 60 0 m 60 515 l 60 981 l 179 860 l 179 585 l 60 515 m 79 1000 l 610 1000 l 490 881 l 200 881 l 79 1000 m 510 585 l 510 860 l 629 981 l 629 515 l 510 585 m 510 119 l 510 425 l 629 485 l 629 0 l 510 119 z "},"o":{"ha":689,"x_min":60,"x_max":629,"o":"m 60 140 l 60 485 l 179 425 l 179 140 l 119 81 l 60 140 m 60 515 l 60 860 l 119 919 l 179 860 l 179 585 l 60 515 m 139 939 l 200 1000 l 490 1000 l 551 939 l 490 881 l 200 881 l 139 939 m 510 585 l 510 860 l 569 919 l 629 860 l 629 515 l 510 585 m 510 140 l 510 425 l 629 485 l 629 140 l 569 81 l 510 140 m 139 61 l 200 119 l 490 119 l 551 61 l 490 0 l 200 0 l 139 61 z "},"p":{"ha":689,"x_min":60,"x_max":629,"o":"m 60 0 l 60 485 l 179 425 l 179 119 l 60 0 m 60 515 l 60 981 l 179 860 l 179 585 l 60 515 m 79 1000 l 490 1000 l 551 939 l 490 881 l 200 881 l 79 1000 m 510 585 l 510 860 l 569 919 l 629 860 l 629 515 l 510 585 m 88 500 l 200 565 l 490 565 l 603 500 l 490 444 l 200 444 l 88 500 z "},"q":{"ha":692,"x_min":60,"x_max":632,"o":"m 60 140 l 60 485 l 179 425 l 179 140 l 119 81 l 60 140 m 60 515 l 60 860 l 119 919 l 179 860 l 179 585 l 60 515 m 139 939 l 200 1000 l 490 1000 l 551 939 l 490 881 l 200 881 l 139 939 m 510 585 l 510 860 l 569 919 l 629 860 l 629 515 l 510 585 m 510 140 l 510 425 l 629 485 l 629 140 l 569 81 l 510 140 m 140 65 l 200 119 l 285 119 l 408 0 l 200 0 l 140 65 m 322 119 l 488 119 l 632 -17 l 632 -178 l 322 119 z "},"r":{"ha":692,"x_min":60,"x_max":717,"o":"m 60 19 l 60 485 l 179 425 l 179 140 l 60 19 m 60 515 l 60 981 l 179 860 l 179 585 l 60 515 m 79 1000 l 490 1000 l 551 939 l 490 881 l 200 881 l 79 1000 m 510 585 l 510 860 l 569 919 l 629 860 l 629 515 l 510 585 m 88 500 l 200 565 l 490 565 l 603 500 l 490 444 l 200 444 l 88 500 m 364 425 l 499 425 l 717 -1 l 508 139 l 364 425 z "},"s":{"ha":689,"x_min":60,"x_max":629,"o":"m 60 515 l 60 860 l 119 919 l 179 860 l 179 585 l 60 515 m 139 939 l 200 1000 l 629 1000 l 500 881 l 200 881 l 139 939 m 510 140 l 510 425 l 629 485 l 629 140 l 569 81 l 510 140 m 60 0 l 190 119 l 490 119 l 551 61 l 490 0 l 60 0 m 88 500 l 200 565 l 490 565 l 603 500 l 490 444 l 200 444 l 88 500 z "},"t":{"ha":571,"x_min":-10,"x_max":581,"o":"m 224 65 l 224 424 l 286 488 l 346 424 l 346 65 l 285 0 l 224 65 m 225 561 l 225 856 l 286 921 l 346 856 l 346 561 l 286 503 l 225 561 m -10 1000 l 581 1000 l 485 881 l 356 881 l 288 950 l 215 881 l 85 881 l -10 1000 z "},"u":{"ha":689,"x_min":60,"x_max":629,"o":"m 60 140 l 60 485 l 179 425 l 179 140 l 119 81 l 60 140 m 60 515 l 60 1000 l 179 885 l 179 585 l 60 515 m 510 585 l 510 885 l 629 1000 l 629 515 l 510 585 m 510 140 l 510 425 l 629 485 l 629 140 l 569 81 l 510 140 m 139 61 l 200 119 l 490 119 l 551 61 l 490 0 l 200 0 l 139 61 z "},"v":{"ha":692,"x_min":60,"x_max":632,"o":"m 60 515 l 60 981 l 179 860 l 179 585 l 60 515 m 510 585 l 510 860 l 629 981 l 629 515 l 510 585 m 60 499 l 217 457 l 331 250 l 331 -1 l 60 499 m 361 0 l 361 250 l 475 457 l 632 497 l 361 0 z "},"w":{"ha":1140,"x_min":60,"x_max":1081,"o":"m 960 575 l 960 881 l 1081 1000 l 1081 515 l 960 575 m 60 515 l 60 1000 l 181 881 l 181 575 l 60 515 m 510 569 l 510 900 l 569 1000 l 631 900 l 631 569 l 569 515 l 510 569 m 510 140 l 510 447 l 569 493 l 631 447 l 631 138 l 571 76 l 510 140 m 60 138 l 60 489 l 179 414 l 179 138 l 119 78 l 60 138 m 140 57 l 200 119 l 490 119 l 569 39 l 650 119 l 942 119 l 1003 60 l 943 0 l 199 0 l 140 57 m 961 138 l 961 415 l 1081 489 l 1081 138 l 1024 79 l 961 138 z "},"x":{"ha":607,"x_min":31,"x_max":576,"o":"m 31 0 l 31 101 l 228 486 l 290 486 l 290 344 l 115 0 l 31 0 m 31 906 l 31 1000 l 117 1000 l 290 653 l 290 514 l 228 514 l 31 906 m 318 514 l 318 653 l 493 1000 l 576 1000 l 576 901 l 381 514 l 318 514 m 318 344 l 318 486 l 381 486 l 576 99 l 576 0 l 490 0 l 318 344 z "},"y":{"ha":689,"x_min":60,"x_max":629,"o":"m 286 69 l 286 418 l 408 418 l 408 69 l 344 0 l 286 69 m 88 500 l 200 565 l 490 565 l 603 500 l 490 444 l 200 444 l 88 500 m 60 515 l 60 1000 l 179 881 l 179 585 l 60 515 m 510 585 l 510 881 l 629 1000 l 629 515 l 510 585 z "},"z":{"ha":588,"x_min":10,"x_max":578,"o":"m 164 0 l 222 119 l 433 119 l 554 0 l 164 0 m 10 0 l 214 458 l 356 486 l 140 0 l 10 0 m 286 633 l 447 1000 l 578 1000 l 364 507 l 286 633 m 32 1000 l 421 1000 l 369 881 l 151 881 l 32 1000 z "},"{":{"ha":422,"x_min":69,"x_max":353,"o":"m 69 500 q 131 528 107 500 q 156 599 156 557 l 156 1064 q 264 1156 156 1156 l 353 1156 l 353 1104 l 338 1104 q 272 1088 289 1104 q 256 1019 256 1071 l 256 608 q 229 535 256 565 q 163 500 203 504 q 229 465 203 496 q 256 392 256 435 l 256 -19 q 271 -87 256 -71 q 338 -104 286 -104 l 353 -104 l 353 -156 l 264 -156 q 156 -64 156 -156 l 156 401 q 125 482 156 468 q 87 497 94 496 q 69 500 79 499 z "},"|":{"ha":226,"x_min":69,"x_max":157,"o":"m 69 0 l 69 1000 l 157 1000 l 157 0 l 69 0 z "},"}":{"ha":422,"x_min":69,"x_max":353,"o":"m 69 -156 l 69 -104 l 85 -104 q 151 -88 135 -104 q 167 -19 167 -72 l 167 392 q 193 465 167 435 q 261 500 219 496 q 203 521 240 503 q 167 608 167 539 l 167 1019 q 151 1088 167 1071 q 85 1104 136 1104 l 69 1104 l 69 1156 l 160 1156 q 240 1132 213 1156 q 267 1064 267 1108 l 267 599 q 297 519 267 533 q 335 503 328 504 q 353 500 343 501 q 299 482 331 497 q 267 401 267 467 l 267 -64 q 160 -156 267 -156 l 69 -156 z "},"~":{"ha":638,"x_min":69,"x_max":568,"o":"m 69 406 l 69 429 q 103 542 69 503 q 194 581 136 581 q 276 563 235 581 l 383 518 l 400 511 q 444 503 428 503 q 478 517 467 503 q 497 568 490 532 l 499 581 l 568 581 l 568 558 q 535 446 568 485 q 443 407 501 407 q 361 425 403 407 l 254 469 l 236 475 q 192 483 208 483 q 140 419 151 483 l 139 406 l 69 406 z "},"Ä":{"ha":689,"x_min":60,"x_max":629,"o":"m 60 0 l 60 485 l 179 425 l 179 119 l 60 0 m 60 515 l 60 981 l 179 860 l 179 585 l 60 515 m 79 1000 l 610 1000 l 490 881 l 200 881 l 79 1000 m 510 585 l 510 860 l 629 981 l 629 515 l 510 585 m 510 119 l 510 425 l 629 485 l 629 0 l 510 119 m 88 500 l 200 565 l 490 565 l 603 500 l 490 444 l 200 444 l 88 500 m 174 1060 l 174 1240 l 294 1240 l 294 1060 l 174 1060 m 396 1060 l 396 1240 l 517 1240 l 517 1060 l 396 1060 z "},"Å":{"ha":689,"x_min":60,"x_max":629,"o":"m 60 0 l 60 485 l 179 425 l 179 119 l 60 0 m 60 515 l 60 979 l 179 860 l 179 585 l 60 515 m 79 1000 l 610 1000 l 490 881 l 200 881 l 79 1000 m 510 585 l 510 860 l 629 979 l 629 515 l 510 585 m 88 500 l 200 565 l 490 565 l 603 500 l 490 444 l 200 444 l 88 500 m 510 119 l 510 425 l 629 485 l 629 0 l 510 119 m 172 1158 l 172 1269 l 226 1321 l 276 1271 l 276 1156 l 226 1107 l 172 1158 m 242 1336 l 294 1390 l 410 1390 l 461 1336 l 411 1289 l 293 1289 l 242 1336 m 431 1156 l 431 1272 l 478 1322 l 532 1271 l 532 1158 l 478 1107 l 431 1156 m 242 1088 l 303 1147 l 401 1147 l 461 1088 l 419 1049 l 283 1049 l 242 1088 z "},"Ç":{"ha":640,"x_min":60,"x_max":610,"o":"m 60 140 l 60 485 l 179 415 l 179 140 l 119 81 l 60 140 m 60 515 l 60 860 l 119 919 l 179 860 l 179 575 l 60 515 m 139 939 l 200 1000 l 610 1000 l 490 881 l 200 881 l 139 939 m 139 61 l 200 119 l 490 119 l 610 0 l 200 0 l 139 61 m 163 -219 l 293 -35 l 421 -35 l 290 -219 l 163 -219 z "},"É":{"ha":619,"x_min":60,"x_max":610,"o":"m 60 19 l 60 485 l 179 425 l 179 140 l 60 19 m 60 515 l 60 981 l 179 860 l 179 585 l 60 515 m 79 1000 l 610 1000 l 490 881 l 200 881 l 79 1000 m 79 0 l 200 119 l 490 119 l 610 0 l 79 0 m 88 500 l 200 565 l 490 565 l 603 500 l 490 444 l 200 444 l 88 500 m 221 1042 l 311 1242 l 442 1242 l 350 1042 l 221 1042 z "},"Ñ":{"ha":689,"x_min":60,"x_max":629,"o":"m 60 0 l 60 485 l 179 425 l 179 119 l 60 0 m 60 515 l 60 981 l 179 860 l 179 585 l 60 515 m 79 1000 l 610 1000 l 490 881 l 200 881 l 79 1000 m 510 585 l 510 860 l 629 981 l 629 515 l 510 585 m 510 119 l 510 425 l 629 485 l 629 0 l 510 119 m 156 1074 l 271 1040 l 285 1083 l 204 1233 l 156 1074 m 235 1249 l 436 1186 l 513 1040 l 318 1100 l 235 1249 m 461 1206 l 475 1249 l 592 1217 l 542 1057 l 461 1206 z "},"Ö":{"ha":689,"x_min":60,"x_max":629,"o":"m 60 140 l 60 485 l 179 425 l 179 140 l 119 81 l 60 140 m 60 515 l 60 860 l 119 919 l 179 860 l 179 585 l 60 515 m 139 939 l 200 1000 l 490 1000 l 551 939 l 490 881 l 200 881 l 139 939 m 510 585 l 510 860 l 569 919 l 629 860 l 629 515 l 510 585 m 510 140 l 510 425 l 629 485 l 629 140 l 569 81 l 510 140 m 139 61 l 200 119 l 490 119 l 551 61 l 490 0 l 200 0 l 139 61 m 179 1060 l 179 1240 l 299 1240 l 299 1060 l 179 1060 m 401 1060 l 401 1240 l 521 1240 l 521 1060 l 401 1060 z "},"Ü":{"ha":689,"x_min":60,"x_max":629,"o":"m 60 140 l 60 485 l 179 425 l 179 140 l 119 81 l 60 140 m 60 515 l 60 860 l 119 919 l 179 860 l 179 585 l 60 515 m 510 585 l 510 860 l 569 919 l 629 860 l 629 515 l 510 585 m 510 140 l 510 425 l 629 485 l 629 140 l 569 81 l 510 140 m 139 61 l 200 119 l 490 119 l 551 61 l 490 0 l 200 0 l 139 61 m 178 1060 l 178 1240 l 299 1240 l 299 1060 l 178 1060 m 400 1060 l 400 1240 l 521 1240 l 521 1060 l 400 1060 z "},"á":{"ha":689,"x_min":60,"x_max":629,"o":"m 60 0 l 60 485 l 179 425 l 179 119 l 60 0 m 60 515 l 60 981 l 179 860 l 179 585 l 60 515 m 79 1000 l 610 1000 l 490 881 l 200 881 l 79 1000 m 510 585 l 510 860 l 629 981 l 629 515 l 510 585 m 510 119 l 510 425 l 629 485 l 629 0 l 510 119 m 88 500 l 200 565 l 490 565 l 603 500 l 490 444 l 200 444 l 88 500 m 251 1042 l 342 1242 l 472 1242 l 381 1042 l 251 1042 z "},"à":{"ha":689,"x_min":60,"x_max":629,"o":"m 60 0 l 60 485 l 179 425 l 179 119 l 60 0 m 60 515 l 60 981 l 179 860 l 179 585 l 60 515 m 79 1000 l 610 1000 l 490 881 l 200 881 l 79 1000 m 510 585 l 510 860 l 629 981 l 629 515 l 510 585 m 510 119 l 510 425 l 629 485 l 629 0 l 510 119 m 88 500 l 200 565 l 490 565 l 603 500 l 490 444 l 200 444 l 88 500 m 226 1240 l 357 1240 l 447 1040 l 317 1040 l 226 1240 z "},"â":{"ha":689,"x_min":60,"x_max":629,"o":"m 60 0 l 60 485 l 179 425 l 179 119 l 60 0 m 60 515 l 60 981 l 179 860 l 179 585 l 60 515 m 79 1000 l 610 1000 l 490 881 l 200 881 l 79 1000 m 510 585 l 510 860 l 629 981 l 629 515 l 510 585 m 510 119 l 510 425 l 629 485 l 629 0 l 510 119 m 88 500 l 200 565 l 490 565 l 603 500 l 490 444 l 200 444 l 88 500 m 72 1042 l 238 1042 l 324 1124 l 290 1263 l 72 1042 m 354 1124 l 440 1042 l 617 1042 l 392 1261 l 354 1124 z "},"ä":{"ha":689,"x_min":60,"x_max":629,"o":"m 60 0 l 60 485 l 179 425 l 179 119 l 60 0 m 60 515 l 60 981 l 179 860 l 179 585 l 60 515 m 79 1000 l 610 1000 l 490 881 l 200 881 l 79 1000 m 510 585 l 510 860 l 629 981 l 629 515 l 510 585 m 510 119 l 510 425 l 629 485 l 629 0 l 510 119 m 88 500 l 200 565 l 490 565 l 603 500 l 490 444 l 200 444 l 88 500 m 174 1060 l 174 1240 l 294 1240 l 294 1060 l 174 1060 m 396 1060 l 396 1240 l 517 1240 l 517 1060 l 396 1060 z "},"ã":{"ha":689,"x_min":60,"x_max":629,"o":"m 60 0 l 60 485 l 179 425 l 179 119 l 60 0 m 60 515 l 60 981 l 179 860 l 179 585 l 60 515 m 79 1000 l 610 1000 l 490 881 l 200 881 l 79 1000 m 510 585 l 510 860 l 629 981 l 629 515 l 510 585 m 510 119 l 510 425 l 629 485 l 629 0 l 510 119 m 88 500 l 200 565 l 490 565 l 603 500 l 490 444 l 200 444 l 88 500 m 139 1074 l 254 1040 l 268 1083 l 188 1233 l 139 1074 m 218 1249 l 419 1186 l 496 1040 l 301 1100 l 218 1249 m 444 1206 l 458 1249 l 575 1217 l 525 1057 l 444 1206 z "},"å":{"ha":689,"x_min":60,"x_max":629,"o":"m 60 0 l 60 485 l 179 425 l 179 119 l 60 0 m 60 515 l 60 979 l 179 860 l 179 585 l 60 515 m 79 1000 l 610 1000 l 490 881 l 200 881 l 79 1000 m 510 585 l 510 860 l 629 979 l 629 515 l 510 585 m 88 500 l 200 565 l 490 565 l 603 500 l 490 444 l 200 444 l 88 500 m 510 119 l 510 425 l 629 485 l 629 0 l 510 119 m 172 1158 l 172 1269 l 226 1321 l 276 1271 l 276 1156 l 226 1107 l 172 1158 m 242 1336 l 294 1390 l 410 1390 l 461 1336 l 411 1289 l 293 1289 l 242 1336 m 431 1156 l 431 1272 l 478 1322 l 532 1271 l 532 1158 l 478 1107 l 431 1156 m 242 1088 l 303 1147 l 401 1147 l 461 1088 l 419 1049 l 283 1049 l 242 1088 z "},"ç":{"ha":640,"x_min":60,"x_max":610,"o":"m 60 140 l 60 485 l 179 415 l 179 140 l 119 81 l 60 140 m 60 515 l 60 860 l 119 919 l 179 860 l 179 575 l 60 515 m 139 939 l 200 1000 l 610 1000 l 490 881 l 200 881 l 139 939 m 139 61 l 200 119 l 490 119 l 610 0 l 200 0 l 139 61 m 163 -219 l 293 -35 l 421 -35 l 290 -219 l 163 -219 z "},"é":{"ha":619,"x_min":60,"x_max":610,"o":"m 60 19 l 60 485 l 179 425 l 179 140 l 60 19 m 60 515 l 60 981 l 179 860 l 179 585 l 60 515 m 79 1000 l 610 1000 l 490 881 l 200 881 l 79 1000 m 79 0 l 200 119 l 490 119 l 610 0 l 79 0 m 88 500 l 200 565 l 490 565 l 603 500 l 490 444 l 200 444 l 88 500 m 221 1042 l 311 1242 l 442 1242 l 350 1042 l 221 1042 z "},"è":{"ha":619,"x_min":60,"x_max":610,"o":"m 60 19 l 60 485 l 179 425 l 179 140 l 60 19 m 60 515 l 60 981 l 179 860 l 179 585 l 60 515 m 79 1000 l 610 1000 l 490 881 l 200 881 l 79 1000 m 79 0 l 200 119 l 490 119 l 610 0 l 79 0 m 88 500 l 200 565 l 490 565 l 603 500 l 490 444 l 200 444 l 88 500 m 171 1240 l 301 1240 l 392 1040 l 261 1040 l 171 1240 z "},"ê":{"ha":619,"x_min":60,"x_max":610,"o":"m 60 19 l 60 485 l 179 425 l 179 140 l 60 19 m 60 515 l 60 981 l 179 860 l 179 585 l 60 515 m 79 1000 l 610 1000 l 490 881 l 200 881 l 79 1000 m 79 0 l 200 119 l 490 119 l 610 0 l 79 0 m 88 500 l 200 565 l 490 565 l 603 500 l 490 444 l 200 444 l 88 500 m 63 1042 l 281 1263 l 314 1124 l 228 1042 l 63 1042 m 349 1124 l 431 1042 l 607 1042 l 386 1257 l 349 1124 z "},"ë":{"ha":619,"x_min":60,"x_max":610,"o":"m 60 19 l 60 485 l 179 425 l 179 140 l 60 19 m 60 515 l 60 981 l 179 860 l 179 585 l 60 515 m 79 1000 l 610 1000 l 490 881 l 200 881 l 79 1000 m 79 0 l 200 119 l 490 119 l 610 0 l 79 0 m 88 500 l 200 565 l 490 565 l 603 500 l 490 444 l 200 444 l 88 500 m 164 1039 l 283 1039 l 283 1219 l 164 1219 l 164 1039 m 386 1039 l 386 1219 l 506 1219 l 506 1039 l 386 1039 z "},"í":{"ha":239,"x_min":18,"x_max":239,"o":"m 60 585 l 60 881 l 179 1000 l 179 515 l 60 585 m 60 119 l 60 425 l 179 485 l 179 0 l 60 119 m 18 1042 l 108 1242 l 239 1242 l 147 1042 l 18 1042 z "},"ì":{"ha":239,"x_min":-11,"x_max":210,"o":"m 60 585 l 60 881 l 179 1000 l 179 515 l 60 585 m 60 119 l 60 425 l 179 485 l 179 0 l 60 119 m -11 1244 l 119 1244 l 210 1044 l 79 1044 l -11 1244 z "},"î":{"ha":239,"x_min":-149,"x_max":396,"o":"m 60 585 l 60 881 l 179 1000 l 179 515 l 60 585 m 60 119 l 60 425 l 179 485 l 179 0 l 60 119 m -149 1042 l 69 1263 l 103 1124 l 17 1042 l -149 1042 m 129 1128 l 219 1042 l 396 1042 l 167 1261 l 129 1128 z "},"ï":{"ha":239,"x_min":-60,"x_max":282,"o":"m 60 585 l 60 881 l 179 1000 l 179 515 l 60 585 m 60 119 l 60 425 l 179 485 l 179 0 l 60 119 m -60 1043 l -60 1224 l 60 1224 l 60 1043 l -60 1043 m 163 1043 l 282 1043 l 282 1224 l 163 1224 l 163 1043 z "},"ñ":{"ha":689,"x_min":60,"x_max":629,"o":"m 60 0 l 60 485 l 179 425 l 179 119 l 60 0 m 60 515 l 60 981 l 179 860 l 179 585 l 60 515 m 79 1000 l 610 1000 l 490 881 l 200 881 l 79 1000 m 510 585 l 510 860 l 629 981 l 629 515 l 510 585 m 510 119 l 510 425 l 629 485 l 629 0 l 510 119 m 156 1074 l 271 1040 l 285 1083 l 204 1233 l 156 1074 m 235 1249 l 436 1186 l 513 1040 l 318 1100 l 235 1249 m 461 1206 l 475 1249 l 592 1217 l 542 1057 l 461 1206 z "},"ó":{"ha":689,"x_min":60,"x_max":629,"o":"m 60 140 l 60 485 l 179 425 l 179 140 l 119 81 l 60 140 m 60 515 l 60 860 l 119 919 l 179 860 l 179 585 l 60 515 m 139 939 l 200 1000 l 490 1000 l 551 939 l 490 881 l 200 881 l 139 939 m 510 585 l 510 860 l 569 919 l 629 860 l 629 515 l 510 585 m 510 140 l 510 425 l 629 485 l 629 140 l 569 81 l 510 140 m 139 61 l 200 119 l 490 119 l 551 61 l 490 0 l 200 0 l 139 61 m 264 1042 l 354 1242 l 485 1242 l 393 1042 l 264 1042 z "},"ò":{"ha":689,"x_min":60,"x_max":629,"o":"m 60 140 l 60 485 l 179 425 l 179 140 l 119 81 l 60 140 m 60 515 l 60 860 l 119 919 l 179 860 l 179 585 l 60 515 m 139 939 l 200 1000 l 490 1000 l 551 939 l 490 881 l 200 881 l 139 939 m 510 585 l 510 860 l 569 919 l 629 860 l 629 515 l 510 585 m 510 140 l 510 425 l 629 485 l 629 140 l 569 81 l 510 140 m 139 61 l 200 119 l 490 119 l 551 61 l 490 0 l 200 0 l 139 61 m 193 1244 l 324 1244 l 414 1044 l 283 1044 l 193 1244 z "},"ô":{"ha":689,"x_min":60,"x_max":629,"o":"m 60 140 l 60 485 l 179 425 l 179 140 l 119 81 l 60 140 m 60 515 l 60 860 l 119 919 l 179 860 l 179 585 l 60 515 m 139 939 l 200 1000 l 490 1000 l 551 939 l 490 881 l 200 881 l 139 939 m 510 585 l 510 860 l 569 919 l 629 860 l 629 515 l 510 585 m 510 140 l 510 425 l 629 485 l 629 140 l 569 81 l 510 140 m 139 61 l 200 119 l 490 119 l 551 61 l 490 0 l 200 0 l 139 61 m 68 1042 l 233 1042 l 319 1124 l 286 1263 l 68 1042 m 346 1128 l 436 1042 l 613 1042 l 383 1261 l 346 1128 z "},"ö":{"ha":689,"x_min":60,"x_max":629,"o":"m 60 140 l 60 485 l 179 425 l 179 140 l 119 81 l 60 140 m 60 515 l 60 860 l 119 919 l 179 860 l 179 585 l 60 515 m 139 939 l 200 1000 l 490 1000 l 551 939 l 490 881 l 200 881 l 139 939 m 510 585 l 510 860 l 569 919 l 629 860 l 629 515 l 510 585 m 510 140 l 510 425 l 629 485 l 629 140 l 569 81 l 510 140 m 139 61 l 200 119 l 490 119 l 551 61 l 490 0 l 200 0 l 139 61 m 179 1060 l 179 1240 l 299 1240 l 299 1060 l 179 1060 m 401 1060 l 401 1240 l 521 1240 l 521 1060 l 401 1060 z "},"õ":{"ha":689,"x_min":60,"x_max":629,"o":"m 60 140 l 60 485 l 179 425 l 179 140 l 119 81 l 60 140 m 60 515 l 60 860 l 119 919 l 179 860 l 179 585 l 60 515 m 139 939 l 200 1000 l 490 1000 l 551 939 l 490 881 l 200 881 l 139 939 m 510 585 l 510 860 l 569 919 l 629 860 l 629 515 l 510 585 m 510 140 l 510 425 l 629 485 l 629 140 l 569 81 l 510 140 m 139 61 l 200 119 l 490 119 l 551 61 l 490 0 l 200 0 l 139 61 m 131 1044 l 246 1011 l 260 1054 l 179 1204 l 131 1044 m 210 1219 l 411 1157 l 488 1011 l 293 1071 l 210 1219 m 436 1176 l 450 1219 l 567 1188 l 517 1028 l 436 1176 z "},"ú":{"ha":689,"x_min":60,"x_max":629,"o":"m 60 140 l 60 485 l 179 425 l 179 140 l 119 81 l 60 140 m 60 515 l 60 1000 l 179 885 l 179 585 l 60 515 m 510 585 l 510 885 l 629 1000 l 629 515 l 510 585 m 510 140 l 510 425 l 629 485 l 629 140 l 569 81 l 510 140 m 139 61 l 200 119 l 490 119 l 551 61 l 490 0 l 200 0 l 139 61 m 239 1042 l 329 1242 l 460 1242 l 368 1042 l 239 1042 z "},"ù":{"ha":689,"x_min":60,"x_max":629,"o":"m 60 140 l 60 485 l 179 425 l 179 140 l 119 81 l 60 140 m 60 515 l 60 1000 l 179 885 l 179 585 l 60 515 m 510 585 l 510 885 l 629 1000 l 629 515 l 510 585 m 510 140 l 510 425 l 629 485 l 629 140 l 569 81 l 510 140 m 139 61 l 200 119 l 490 119 l 551 61 l 490 0 l 200 0 l 139 61 m 222 1240 l 353 1240 l 443 1040 l 313 1040 l 222 1240 z "},"û":{"ha":689,"x_min":60,"x_max":629,"o":"m 60 140 l 60 485 l 179 425 l 179 140 l 119 81 l 60 140 m 60 515 l 60 1000 l 179 885 l 179 585 l 60 515 m 510 585 l 510 885 l 629 1000 l 629 515 l 510 585 m 510 140 l 510 425 l 629 485 l 629 140 l 569 81 l 510 140 m 139 61 l 200 119 l 490 119 l 551 61 l 490 0 l 200 0 l 139 61 m 68 1042 l 233 1042 l 319 1124 l 286 1263 l 68 1042 m 346 1128 l 383 1261 l 613 1042 l 436 1042 l 346 1128 z "},"ü":{"ha":689,"x_min":60,"x_max":629,"o":"m 60 140 l 60 485 l 179 425 l 179 140 l 119 81 l 60 140 m 60 515 l 60 860 l 119 919 l 179 860 l 179 585 l 60 515 m 510 585 l 510 860 l 569 919 l 629 860 l 629 515 l 510 585 m 510 140 l 510 425 l 629 485 l 629 140 l 569 81 l 510 140 m 139 61 l 200 119 l 490 119 l 551 61 l 490 0 l 200 0 l 139 61 m 178 1060 l 178 1240 l 299 1240 l 299 1060 l 178 1060 m 400 1060 l 400 1240 l 521 1240 l 521 1060 l 400 1060 z "},"†":{"ha":697,"x_min":31,"x_max":667,"o":"m 31 675 l 89 739 l 268 739 l 331 681 l 267 619 l 88 619 l 31 675 m 374 679 l 432 739 l 611 739 l 667 676 l 607 619 l 428 619 l 374 679 m 288 56 l 288 599 l 349 660 l 407 600 l 407 56 l 346 0 l 288 56 m 288 761 l 288 944 l 349 1000 l 407 944 l 407 761 l 349 699 l 288 761 z "},"°":{"ha":508,"x_min":69,"x_max":439,"o":"m 69 835 q 124 965 69 911 q 254 1019 178 1019 q 385 966 332 1019 q 439 835 439 913 q 385 703 439 757 q 254 650 332 650 q 124 704 178 650 q 69 835 69 758 m 129 835 q 165 746 129 782 q 254 710 201 710 q 343 746 307 710 q 379 835 379 782 q 343 924 379 888 q 254 960 307 960 q 165 924 201 960 q 129 835 129 888 z "},"¢":{"ha":646,"x_min":60,"x_max":615,"o":"m 60 140 l 60 485 l 179 415 l 179 140 l 119 81 l 60 140 m 60 515 l 60 860 l 119 919 l 179 860 l 179 575 l 60 515 m 275 -119 l 275 -19 l 336 40 l 397 -21 l 397 -117 l 338 -196 l 275 -119 m 142 58 l 201 119 l 494 119 l 614 0 l 407 0 l 336 79 l 265 0 l 200 0 l 142 58 m 144 938 l 203 1000 l 271 1000 l 339 926 l 413 1000 l 615 1000 l 496 881 l 201 881 l 144 938 m 281 1022 l 281 1122 l 339 1188 l 401 1118 l 401 1022 l 338 957 l 281 1022 z "},"£":{"ha":743,"x_min":-31,"x_max":713,"o":"m 164 0 l 301 119 l 592 119 l 713 0 l 164 0 m 242 939 l 301 1000 l 713 1000 l 592 881 l 301 881 l 242 939 m -31 499 l 32 565 l 136 565 l 204 497 l 139 444 l 29 444 l -31 499 m 163 576 l 163 860 l 224 922 l 283 860 l 283 574 l 221 518 l 163 576 m 242 497 l 306 565 l 471 565 l 531 497 l 471 444 l 303 444 l 242 497 m 160 42 l 160 418 l 224 474 l 282 418 l 282 142 l 160 42 z "},"§":{"ha":681,"x_min":60,"x_max":621,"o":"m 140 -251 l 203 -186 l 479 -186 l 540 -251 l 481 -304 l 201 -304 l 140 -251 m 60 -169 l 60 39 l 122 97 l 183 38 l 183 -169 l 122 -229 l 60 -169 m 140 119 l 213 190 l 469 190 l 540 119 l 490 72 l 190 72 l 140 119 m 60 208 l 60 483 l 122 543 l 183 483 l 183 207 l 122 147 l 60 208 m 501 208 l 501 483 l 558 543 l 621 485 l 621 208 l 560 149 l 501 208 m 142 568 l 192 624 l 492 624 l 540 568 l 472 503 l 213 503 l 142 568 m 501 651 l 501 861 l 558 921 l 621 863 l 621 651 l 560 592 l 501 651 m 142 938 l 201 1000 l 481 1000 l 540 938 l 479 881 l 201 881 l 142 938 z "},"•":{"ha":508,"x_min":69,"x_max":439,"o":"m 69 500 q 124 631 69 576 q 254 685 178 685 q 385 631 332 685 q 439 500 439 578 q 385 369 439 422 q 254 315 332 315 q 123 369 176 315 q 69 500 69 422 z "},"¶":{"ha":819,"x_min":69,"x_max":750,"o":"m 331 1000 l 750 1000 l 750 935 l 331 935 q 193 876 250 935 q 136 733 136 818 q 193 594 136 651 q 331 538 250 538 l 429 538 l 429 878 l 496 878 l 496 0 l 429 0 l 429 472 l 331 472 q 146 549 222 472 q 69 736 69 625 q 146 922 69 844 q 331 1000 222 1000 m 592 0 l 592 878 l 658 878 l 658 0 l 592 0 z "},"ß":{"ha":1378,"x_min":60,"x_max":1318,"o":"m 60 515 l 60 860 l 119 919 l 179 860 l 179 585 l 60 515 m 139 939 l 200 1000 l 629 1000 l 500 881 l 200 881 l 139 939 m 510 140 l 510 425 l 629 485 l 629 140 l 569 81 l 510 140 m 60 0 l 190 119 l 490 119 l 551 61 l 490 0 l 60 0 m 88 500 l 200 565 l 490 565 l 603 500 l 490 444 l 200 444 l 88 500 m 749 515 l 749 860 l 808 919 l 868 860 l 868 585 l 749 515 m 828 939 l 889 1000 l 1318 1000 l 1189 881 l 889 881 l 828 939 m 1199 140 l 1199 425 l 1318 485 l 1318 140 l 1258 81 l 1199 140 m 749 0 l 879 119 l 1179 119 l 1240 61 l 1179 0 l 749 0 m 776 500 l 889 565 l 1179 565 l 1292 500 l 1179 444 l 889 444 l 776 500 z "},"®":{"ha":1197,"x_min":81,"x_max":1117,"o":"m 81 501 q 232 868 81 717 q 599 1019 383 1019 q 965 868 814 1019 q 1117 501 1117 717 q 965 135 1117 286 q 599 -17 814 -17 q 232 135 383 -17 q 81 501 81 286 m 146 501 q 245 209 146 308 q 427 76 344 110 q 599 42 510 42 q 770 76 686 42 q 919 176 854 110 q 1019 326 985 242 q 1053 501 1053 410 q 1019 675 1053 590 q 885 860 985 760 q 599 961 786 961 q 428 927 511 961 q 245 792 344 893 q 146 501 146 692 m 442 176 l 442 839 l 588 839 q 675 831 644 839 q 742 792 706 822 q 788 719 779 763 q 796 656 796 675 q 754 540 796 586 q 642 485 713 494 l 617 483 l 828 176 l 739 176 l 517 507 l 517 176 l 442 176 m 517 531 l 574 531 q 681 562 643 531 q 719 651 719 593 q 583 776 719 776 l 517 776 l 517 531 z "},"©":{"ha":1197,"x_min":81,"x_max":1117,"o":"m 81 501 q 232 868 81 717 q 599 1019 383 1019 q 965 868 814 1019 q 1117 501 1117 717 q 965 135 1117 286 q 599 -17 814 -17 q 232 135 383 -17 q 81 501 81 286 m 146 501 q 245 209 146 308 q 427 76 344 110 q 599 42 510 42 q 770 76 686 42 q 919 176 854 110 q 1019 326 985 242 q 1053 501 1053 410 q 1019 675 1053 590 q 885 860 985 760 q 599 961 786 961 q 428 927 511 961 q 245 792 344 893 q 146 501 146 692 m 844 758 l 806 704 q 701 765 750 756 q 621 774 651 774 q 445 709 521 774 q 359 580 369 644 q 349 492 349 515 q 429 296 349 374 q 621 218 510 218 q 768 261 700 218 l 804 288 l 843 235 q 740 173 796 194 q 622 151 685 151 q 374 249 475 151 q 274 489 274 347 q 279 554 274 521 q 310 655 285 588 q 421 782 335 722 q 617 842 507 842 q 643 842 632 842 q 714 831 654 842 q 844 758 774 819 z "},"™":{"ha":1018,"x_min":69,"x_max":949,"o":"m 69 935 l 69 1000 l 369 1000 l 369 935 l 256 935 l 256 500 l 182 500 l 182 935 l 69 935 m 353 500 l 451 1015 l 481 1015 l 629 683 l 638 664 l 642 653 q 647 631 644 644 q 650 603 650 618 q 671 683 654 642 l 821 1015 l 850 1015 l 949 500 l 875 500 l 824 797 l 821 814 l 819 822 q 818 844 818 836 q 821 869 818 853 l 808 824 l 801 807 l 800 800 l 661 488 l 640 488 l 501 800 l 499 808 l 493 824 l 481 869 q 483 839 483 847 q 482 822 482 828 l 481 814 l 478 797 l 426 500 l 353 500 z "},"´":{"ha":221,"x_min":0,"x_max":221,"o":"m 0 504 l 90 704 l 221 704 l 129 504 l 0 504 z "},"¨":{"ha":342,"x_min":0,"x_max":342,"o":"m 0 501 l 0 682 l 119 682 l 119 501 l 0 501 m 222 501 l 222 682 l 342 682 l 342 501 l 222 501 z "},"Æ":{"ha":1101,"x_min":60,"x_max":1071,"o":"m 60 0 l 60 486 l 181 424 l 181 118 l 60 0 m 60 517 l 60 981 l 182 860 l 182 586 l 60 517 m 82 1000 l 1071 1000 l 951 881 l 653 881 l 576 957 l 493 881 l 201 881 l 82 1000 m 511 588 l 511 863 l 574 924 l 632 863 l 632 586 l 574 525 l 511 588 m 88 501 l 201 565 l 493 565 l 554 506 l 492 444 l 200 444 l 88 501 m 599 506 l 657 565 l 940 565 l 1051 501 l 936 444 l 653 444 l 599 506 m 513 10 l 513 425 l 574 485 l 632 425 l 632 129 l 513 10 m 539 0 l 660 119 l 953 119 l 1071 0 l 539 0 z "},"Ø":{"ha":697,"x_min":60,"x_max":638,"o":"m 61 515 l 61 860 l 121 919 l 181 860 l 181 585 l 61 515 m 511 140 l 511 425 l 631 485 l 631 140 l 571 81 l 511 140 m 61 156 l 61 483 l 183 426 l 183 365 l 61 156 m 144 939 l 204 1000 l 499 1000 l 529 964 l 482 881 l 204 881 l 144 939 m 515 585 l 515 635 l 638 842 l 638 517 l 515 585 m 169 35 l 222 119 l 496 118 l 553 60 l 494 0 l 203 0 l 169 35 m 60 0 l 60 101 l 579 1000 l 638 1000 l 638 901 l 121 0 l 60 0 z "},"¥":{"ha":707,"x_min":31,"x_max":676,"o":"m 289 69 l 289 418 l 411 418 l 411 69 l 347 0 l 289 69 m 89 500 l 201 565 l 492 565 l 604 500 l 492 444 l 201 444 l 89 500 m 63 515 l 63 1000 l 182 881 l 182 585 l 63 515 m 513 585 l 513 881 l 632 1000 l 632 515 l 513 585 m 32 215 l 58 260 l 258 260 l 258 178 l 57 178 l 32 215 m 451 179 l 451 263 l 649 263 l 676 219 l 647 179 l 451 179 m 31 353 l 64 397 l 258 397 l 258 314 l 60 314 l 31 353 m 451 397 l 653 397 l 676 351 l 649 315 l 451 315 l 451 397 z "},"ª":{"ha":615,"x_min":69,"x_max":546,"o":"m 85 478 l 546 478 l 546 403 l 85 403 l 85 478 m 465 901 l 465 1000 l 546 1000 l 546 547 l 465 547 l 465 653 l 461 642 q 393 565 440 594 q 289 536 346 536 q 172 568 247 536 q 83 674 97 600 q 69 774 69 749 q 81 854 69 797 q 152 963 92 911 q 292 1015 213 1015 q 363 1004 311 1015 q 454 922 414 993 l 461 911 l 465 901 m 153 775 l 157 743 q 217 641 169 674 q 310 608 264 608 q 390 631 357 608 q 440 681 422 654 q 462 733 457 708 q 467 775 467 757 q 456 844 467 792 q 395 919 446 896 q 310 943 344 943 q 210 906 253 943 q 156 806 167 869 l 153 775 z "},"º":{"ha":617,"x_min":69,"x_max":547,"o":"m 78 403 l 78 478 l 540 478 l 540 403 l 78 403 m 69 778 l 74 825 q 157 967 92 913 q 306 1022 222 1022 q 437 988 354 1022 q 533 877 519 953 q 547 778 547 801 q 538 703 547 753 q 478 604 528 654 q 383 544 429 554 q 308 533 336 533 q 285 533 296 533 q 228 546 268 538 q 138 604 188 554 q 74 729 89 654 l 69 778 m 151 778 q 157 725 151 757 q 194 658 163 693 q 259 616 226 624 q 308 608 292 608 q 419 656 372 608 q 465 778 465 704 q 459 834 465 799 q 408 908 453 869 q 308 946 364 946 q 213 917 274 946 q 151 778 151 889 z "},"æ":{"ha":1101,"x_min":60,"x_max":1071,"o":"m 60 0 l 60 486 l 181 424 l 181 118 l 60 0 m 60 517 l 60 981 l 182 860 l 182 586 l 60 517 m 82 1000 l 1071 1000 l 951 881 l 653 881 l 576 957 l 493 881 l 201 881 l 82 1000 m 511 588 l 511 863 l 574 924 l 632 863 l 632 586 l 574 525 l 511 588 m 88 501 l 201 565 l 493 565 l 554 506 l 492 444 l 200 444 l 88 501 m 599 506 l 657 565 l 940 565 l 1051 501 l 936 444 l 653 444 l 599 506 m 513 10 l 513 425 l 574 485 l 632 425 l 632 129 l 513 10 m 539 0 l 660 119 l 953 119 l 1071 0 l 539 0 z "},"ø":{"ha":697,"x_min":60,"x_max":638,"o":"m 61 515 l 61 860 l 121 919 l 181 860 l 181 585 l 61 515 m 511 140 l 511 425 l 631 485 l 631 140 l 571 81 l 511 140 m 61 156 l 61 483 l 183 426 l 183 365 l 61 156 m 144 939 l 204 1000 l 499 1000 l 529 964 l 482 881 l 204 881 l 144 939 m 515 585 l 515 635 l 638 842 l 638 517 l 515 585 m 169 35 l 222 119 l 496 118 l 553 60 l 494 0 l 203 0 l 169 35 m 60 0 l 60 101 l 579 1000 l 638 1000 l 638 901 l 121 0 l 60 0 z "},"¿":{"ha":582,"x_min":60,"x_max":551,"o":"m 310 785 l 310 1000 l 429 1000 l 429 785 l 310 785 m 60 140 l 60 485 l 179 415 l 179 140 l 119 81 l 60 140 m 308 569 l 308 718 l 429 718 l 429 454 l 308 569 m 88 497 l 200 556 l 283 556 l 404 435 l 199 435 l 88 497 m 139 61 l 200 119 l 490 119 l 551 61 l 490 0 l 200 0 l 139 61 z "},"¡":{"ha":239,"x_min":60,"x_max":179,"o":"m 60 785 l 60 1000 l 179 1000 l 179 785 l 60 785 m 60 0 l 60 706 l 179 615 l 179 119 l 60 0 z "},"¬":{"ha":789,"x_min":69,"x_max":719,"o":"m 69 500 l 69 588 l 719 588 l 719 300 l 644 300 l 644 500 l 69 500 z "},"ƒ":{"ha":758,"x_min":31,"x_max":728,"o":"m 31 -200 l 115 485 l 228 425 l 165 -81 l 31 -200 m 118 515 l 175 981 l 281 860 l 247 585 l 118 515 m 144 500 l 264 565 l 439 565 l 544 500 l 425 444 l 250 444 l 144 500 m 199 1000 l 728 1000 l 593 881 l 303 881 l 199 1000 z "},"«":{"ha":553,"x_min":31,"x_max":522,"o":"m 251 307 l 381 307 l 521 0 l 390 0 l 251 307 m 31 340 l 171 650 l 303 650 l 160 340 l 31 340 m 31 307 l 160 307 l 300 0 l 169 0 l 31 307 m 251 340 l 392 650 l 522 650 l 381 340 l 251 340 z "},"»":{"ha":553,"x_min":31,"x_max":522,"o":"m 31 0 l 174 310 l 301 310 l 163 0 l 31 0 m 32 650 l 164 650 l 303 343 l 174 343 l 32 650 m 251 0 l 394 310 l 522 310 l 383 0 l 251 0 m 253 650 l 385 650 l 522 343 l 394 343 l 253 650 z "},"…":{"ha":794,"x_min":57,"x_max":738,"o":"m 57 63 q 78 116 57 94 q 132 138 100 138 q 185 116 164 138 q 207 63 207 94 q 185 9 207 31 q 132 -12 164 -12 q 78 9 100 -12 q 57 63 57 31 m 322 63 q 344 116 322 94 q 397 138 365 138 q 451 116 429 138 q 472 63 472 94 q 451 9 472 31 q 397 -12 429 -12 q 344 9 365 -12 q 322 63 322 31 m 588 63 q 609 116 588 94 q 663 138 631 138 q 715 117 693 138 q 738 63 738 96 q 715 10 738 32 q 663 -12 693 -12 q 609 9 631 -12 q 588 63 588 31 z "}," ":{"ha":347,"x_min":0,"x_max":0,"o":""},"À":{"ha":689,"x_min":60,"x_max":629,"o":"m 60 0 l 60 485 l 179 425 l 179 119 l 60 0 m 60 515 l 60 981 l 179 860 l 179 585 l 60 515 m 79 1000 l 610 1000 l 490 881 l 200 881 l 79 1000 m 510 585 l 510 860 l 629 981 l 629 515 l 510 585 m 510 119 l 510 425 l 629 485 l 629 0 l 510 119 m 88 500 l 200 565 l 490 565 l 603 500 l 490 444 l 200 444 l 88 500 m 226 1240 l 357 1240 l 447 1040 l 317 1040 l 226 1240 z "},"Ã":{"ha":689,"x_min":60,"x_max":629,"o":"m 60 0 l 60 485 l 179 425 l 179 119 l 60 0 m 60 515 l 60 981 l 179 860 l 179 585 l 60 515 m 79 1000 l 610 1000 l 490 881 l 200 881 l 79 1000 m 510 585 l 510 860 l 629 981 l 629 515 l 510 585 m 510 119 l 510 425 l 629 485 l 629 0 l 510 119 m 88 500 l 200 565 l 490 565 l 603 500 l 490 444 l 200 444 l 88 500 m 139 1074 l 254 1040 l 268 1083 l 188 1233 l 139 1074 m 218 1249 l 419 1186 l 496 1040 l 301 1100 l 218 1249 m 444 1206 l 458 1249 l 575 1217 l 525 1057 l 444 1206 z "},"Õ":{"ha":689,"x_min":60,"x_max":629,"o":"m 60 140 l 60 485 l 179 425 l 179 140 l 119 81 l 60 140 m 60 515 l 60 860 l 119 919 l 179 860 l 179 585 l 60 515 m 139 939 l 200 1000 l 490 1000 l 551 939 l 490 881 l 200 881 l 139 939 m 510 585 l 510 860 l 569 919 l 629 860 l 629 515 l 510 585 m 510 140 l 510 425 l 629 485 l 629 140 l 569 81 l 510 140 m 139 61 l 200 119 l 490 119 l 551 61 l 490 0 l 200 0 l 139 61 m 131 1044 l 246 1011 l 260 1054 l 179 1204 l 131 1044 m 210 1219 l 411 1157 l 488 1011 l 293 1071 l 210 1219 m 436 1176 l 450 1219 l 567 1188 l 517 1028 l 436 1176 z "},"Œ":{"ha":1106,"x_min":60,"x_max":1075,"o":"m 511 588 l 511 863 l 574 924 l 632 863 l 632 586 l 574 525 l 511 588 m 599 506 l 657 565 l 940 565 l 1051 501 l 936 444 l 653 444 l 599 506 m 60 119 l 60 490 l 182 426 l 182 119 l 121 65 l 60 119 m 60 519 l 60 865 l 121 921 l 182 864 l 182 590 l 60 519 m 142 943 l 204 1000 l 1075 1000 l 954 881 l 650 881 l 578 961 l 493 881 l 203 881 l 142 943 m 510 129 l 510 429 l 575 490 l 631 428 l 631 128 l 574 68 l 510 129 m 139 50 l 214 119 l 490 119 l 572 33 l 658 119 l 956 119 l 1074 0 l 199 0 l 139 50 z "},"œ":{"ha":1106,"x_min":60,"x_max":1075,"o":"m 511 588 l 511 863 l 574 924 l 632 863 l 632 586 l 574 525 l 511 588 m 599 506 l 657 565 l 940 565 l 1051 501 l 936 444 l 653 444 l 599 506 m 60 119 l 60 490 l 182 426 l 182 119 l 121 65 l 60 119 m 60 519 l 60 865 l 121 921 l 182 864 l 182 590 l 60 519 m 142 943 l 204 1000 l 1075 1000 l 954 881 l 650 881 l 578 961 l 493 881 l 203 881 l 142 943 m 510 129 l 510 429 l 575 490 l 631 428 l 631 128 l 574 68 l 510 129 m 139 50 l 214 119 l 490 119 l 572 33 l 658 119 l 956 119 l 1074 0 l 199 0 l 139 50 z "},"–":{"ha":689,"x_min":60,"x_max":629,"o":"m 60 440 l 118 560 l 629 560 l 571 440 l 60 440 z "},"—":{"ha":561,"x_min":31,"x_max":531,"o":"m 31 340 l 31 461 l 531 461 l 531 340 l 31 340 z "},"“":{"ha":460,"x_min":31,"x_max":429,"o":"m 31 656 l 96 1000 l 219 1000 l 154 656 l 31 656 m 240 656 l 306 1000 l 429 1000 l 364 656 l 240 656 z "},"”":{"ha":460,"x_min":31,"x_max":429,"o":"m 31 656 l 96 1000 l 219 1000 l 154 656 l 31 656 m 240 656 l 306 1000 l 429 1000 l 364 656 l 240 656 z "},"‘":{"ha":250,"x_min":31,"x_max":219,"o":"m 31 656 l 96 1000 l 219 1000 l 154 656 l 31 656 z "},"’":{"ha":250,"x_min":31,"x_max":219,"o":"m 31 656 l 96 1000 l 219 1000 l 154 656 l 31 656 z "},"ÿ":{"ha":689,"x_min":60,"x_max":629,"o":"m 286 69 l 286 418 l 408 418 l 408 69 l 344 0 l 286 69 m 88 500 l 200 565 l 490 565 l 603 500 l 490 444 l 200 444 l 88 500 m 60 515 l 60 1000 l 179 881 l 179 585 l 60 515 m 510 585 l 510 881 l 629 1000 l 629 515 l 510 585 m 178 964 l 297 964 l 297 1144 l 178 1144 l 178 964 m 400 964 l 400 1144 l 519 1144 l 519 964 l 400 964 z "},"Ÿ":{"ha":689,"x_min":60,"x_max":629,"o":"m 286 69 l 286 418 l 408 418 l 408 69 l 344 0 l 286 69 m 88 500 l 200 565 l 490 565 l 603 500 l 490 444 l 200 444 l 88 500 m 60 515 l 60 1000 l 179 881 l 179 585 l 60 515 m 510 585 l 510 881 l 629 1000 l 629 515 l 510 585 m 178 964 l 297 964 l 297 1144 l 178 1144 l 178 964 m 400 964 l 400 1144 l 519 1144 l 519 964 l 400 964 z "},"∕":{"ha":332,"x_min":-50,"x_max":392,"o":"m -50 0 l 110 444 l 193 444 l 33 0 l -50 0 m 163 594 l 308 1000 l 392 1000 l 203 474 l 163 594 z "},"¤":{"ha":633,"x_min":69,"x_max":564,"o":"m 69 297 l 158 385 q 118 501 118 438 q 157 617 118 565 l 71 700 l 89 724 l 100 735 l 110 744 l 199 658 q 318 697 251 697 q 435 658 383 697 l 521 746 q 564 701 543 729 l 476 618 q 514 501 514 565 q 475 383 514 438 l 563 296 l 553 285 l 543 275 l 519 254 l 433 342 q 317 303 382 303 q 200 343 250 303 l 110 256 q 90 274 99 264 q 69 297 81 283 m 182 500 q 222 406 182 446 q 317 367 261 367 q 411 406 372 367 q 450 500 450 446 q 410 594 450 554 q 317 633 371 633 q 223 594 264 633 q 182 500 182 554 z "},"‹":{"ha":333,"x_min":31,"x_max":303,"o":"m 31 307 l 160 307 l 300 0 l 169 0 l 31 307 m 31 340 l 171 650 l 303 650 l 160 340 l 31 340 z "},"›":{"ha":333,"x_min":31,"x_max":303,"o":"m 31 0 l 174 310 l 301 310 l 163 0 l 31 0 m 32 650 l 164 650 l 303 343 l 174 343 l 32 650 z "},"":{"ha":849,"x_min":60,"x_max":789,"o":"m 60 0 l 60 485 l 179 425 l 179 119 l 60 0 m 60 515 l 60 981 l 179 860 l 179 585 l 60 515 m 79 1000 l 610 1000 l 490 881 l 200 881 l 79 1000 m 88 500 l 200 565 l 490 565 l 603 500 l 490 444 l 200 444 l 88 500 m 669 585 l 669 881 l 789 1000 l 789 515 l 669 585 m 669 119 l 669 425 l 789 485 l 789 0 l 669 119 z "},"":{"ha":1279,"x_min":60,"x_max":1239,"o":"m 60 0 l 60 485 l 179 425 l 179 119 l 60 0 m 60 515 l 60 981 l 179 860 l 179 585 l 60 515 m 79 1000 l 610 1000 l 490 881 l 200 881 l 79 1000 m 88 500 l 200 565 l 490 565 l 603 500 l 490 444 l 200 444 l 88 500 m 669 19 l 669 485 l 789 425 l 789 140 l 669 19 m 669 515 l 669 1000 l 789 881 l 789 585 l 669 515 m 1119 140 l 1119 425 l 1239 485 l 1239 19 l 1119 140 m 689 0 l 810 119 l 1100 119 l 1219 0 l 689 0 z "},"‡":{"ha":697,"x_min":31,"x_max":667,"o":"m 31 335 l 89 399 l 268 399 l 331 339 l 267 278 l 88 278 l 31 335 m 374 339 l 432 399 l 611 399 l 667 335 l 607 278 l 428 278 l 374 339 m 288 54 l 288 258 l 349 318 l 407 258 l 407 54 l 346 0 l 288 54 m 288 421 l 288 604 l 349 658 l 407 604 l 407 419 l 349 358 l 288 421 m 31 676 l 89 740 l 268 740 l 331 681 l 267 619 l 88 619 l 31 676 m 374 681 l 432 740 l 611 740 l 667 676 l 607 619 l 428 619 l 374 681 m 288 763 l 288 946 l 349 1000 l 407 946 l 407 761 l 349 700 l 288 763 z "},"·":{"ha":181,"x_min":31,"x_max":150,"o":"m 31 396 l 31 611 l 150 611 l 150 396 l 31 396 z "},"∙":{"ha":181,"x_min":31,"x_max":150,"o":"m 31 396 l 31 611 l 150 611 l 150 396 l 31 396 z "},"‚":{"ha":200,"x_min":-19,"x_max":169,"o":"m -19 -131 l 46 215 l 169 215 l 104 -131 l -19 -131 z "},"„":{"ha":410,"x_min":-19,"x_max":379,"o":"m -19 -131 l 46 215 l 169 215 l 104 -131 l -19 -131 m 190 -131 l 256 215 l 379 215 l 314 -131 l 190 -131 z "},"‰":{"ha":1376,"x_min":31,"x_max":1346,"o":"m 31 625 l 31 861 l 88 919 l 140 860 l 140 625 l 88 565 l 31 625 m 104 938 l 158 1000 l 275 1000 l 328 938 l 275 881 l 157 881 l 104 938 m 294 625 l 294 861 l 346 921 l 401 863 l 401 626 l 346 565 l 294 625 m 103 544 l 157 608 l 275 608 l 328 544 l 274 490 l 158 490 l 103 544 m 461 594 l 688 1000 l 793 1000 l 501 474 l 461 594 m 135 0 l 382 444 l 486 444 l 239 0 l 135 0 m 528 144 l 528 379 l 585 439 l 638 379 l 638 143 l 585 83 l 528 144 m 601 456 l 656 513 l 772 513 l 825 457 l 772 392 l 654 392 l 601 456 m 792 144 l 792 379 l 842 440 l 899 381 l 899 144 l 843 85 l 792 144 m 600 63 l 654 119 l 772 119 l 825 63 l 771 0 l 654 0 l 600 63 m 975 144 l 975 379 l 1032 439 l 1085 379 l 1085 143 l 1032 83 l 975 144 m 1049 456 l 1104 513 l 1219 513 l 1272 457 l 1219 392 l 1101 392 l 1049 456 m 1047 63 l 1101 119 l 1219 119 l 1272 63 l 1218 0 l 1103 0 l 1047 63 m 1239 144 l 1239 379 l 1290 440 l 1346 381 l 1346 144 l 1290 85 l 1239 144 z "},"Â":{"ha":689,"x_min":60,"x_max":629,"o":"m 60 0 l 60 485 l 179 425 l 179 119 l 60 0 m 60 515 l 60 981 l 179 860 l 179 585 l 60 515 m 79 1000 l 610 1000 l 490 881 l 200 881 l 79 1000 m 510 585 l 510 860 l 629 981 l 629 515 l 510 585 m 510 119 l 510 425 l 629 485 l 629 0 l 510 119 m 88 500 l 200 565 l 490 565 l 603 500 l 490 444 l 200 444 l 88 500 m 72 1042 l 238 1042 l 324 1124 l 290 1263 l 72 1042 m 354 1124 l 440 1042 l 617 1042 l 392 1261 l 354 1124 z "},"Ê":{"ha":619,"x_min":60,"x_max":610,"o":"m 60 19 l 60 485 l 179 425 l 179 140 l 60 19 m 60 515 l 60 981 l 179 860 l 179 585 l 60 515 m 79 1000 l 610 1000 l 490 881 l 200 881 l 79 1000 m 79 0 l 200 119 l 490 119 l 610 0 l 79 0 m 88 500 l 200 565 l 490 565 l 603 500 l 490 444 l 200 444 l 88 500 m 63 1042 l 281 1263 l 314 1124 l 228 1042 l 63 1042 m 349 1124 l 431 1042 l 607 1042 l 386 1257 l 349 1124 z "},"Á":{"ha":689,"x_min":60,"x_max":629,"o":"m 60 0 l 60 485 l 179 425 l 179 119 l 60 0 m 60 515 l 60 981 l 179 860 l 179 585 l 60 515 m 79 1000 l 610 1000 l 490 881 l 200 881 l 79 1000 m 510 585 l 510 860 l 629 981 l 629 515 l 510 585 m 510 119 l 510 425 l 629 485 l 629 0 l 510 119 m 88 500 l 200 565 l 490 565 l 603 500 l 490 444 l 200 444 l 88 500 m 251 1042 l 342 1242 l 472 1242 l 381 1042 l 251 1042 z "},"Ë":{"ha":619,"x_min":60,"x_max":610,"o":"m 60 19 l 60 485 l 179 425 l 179 140 l 60 19 m 60 515 l 60 981 l 179 860 l 179 585 l 60 515 m 79 1000 l 610 1000 l 490 881 l 200 881 l 79 1000 m 79 0 l 200 119 l 490 119 l 610 0 l 79 0 m 88 500 l 200 565 l 490 565 l 603 500 l 490 444 l 200 444 l 88 500 m 164 1039 l 283 1039 l 283 1219 l 164 1219 l 164 1039 m 386 1039 l 386 1219 l 506 1219 l 506 1039 l 386 1039 z "},"È":{"ha":619,"x_min":60,"x_max":610,"o":"m 60 19 l 60 485 l 179 425 l 179 140 l 60 19 m 60 515 l 60 981 l 179 860 l 179 585 l 60 515 m 79 1000 l 610 1000 l 490 881 l 200 881 l 79 1000 m 79 0 l 200 119 l 490 119 l 610 0 l 79 0 m 88 500 l 200 565 l 490 565 l 603 500 l 490 444 l 200 444 l 88 500 m 171 1240 l 301 1240 l 392 1040 l 261 1040 l 171 1240 z "},"Í":{"ha":239,"x_min":18,"x_max":239,"o":"m 60 585 l 60 881 l 179 1000 l 179 515 l 60 585 m 60 119 l 60 425 l 179 485 l 179 0 l 60 119 m 18 1042 l 108 1242 l 239 1242 l 147 1042 l 18 1042 z "},"Î":{"ha":239,"x_min":-149,"x_max":396,"o":"m 60 585 l 60 881 l 179 1000 l 179 515 l 60 585 m 60 119 l 60 425 l 179 485 l 179 0 l 60 119 m -149 1042 l 69 1263 l 103 1124 l 17 1042 l -149 1042 m 129 1128 l 219 1042 l 396 1042 l 167 1261 l 129 1128 z "},"Ï":{"ha":239,"x_min":-60,"x_max":282,"o":"m 60 585 l 60 881 l 179 1000 l 179 515 l 60 585 m 60 119 l 60 425 l 179 485 l 179 0 l 60 119 m -60 1043 l -60 1224 l 60 1224 l 60 1043 l -60 1043 m 163 1043 l 282 1043 l 282 1224 l 163 1224 l 163 1043 z "},"Ì":{"ha":239,"x_min":-11,"x_max":210,"o":"m 60 585 l 60 881 l 179 1000 l 179 515 l 60 585 m 60 119 l 60 425 l 179 485 l 179 0 l 60 119 m -11 1244 l 119 1244 l 210 1044 l 79 1044 l -11 1244 z "},"Ó":{"ha":689,"x_min":60,"x_max":629,"o":"m 60 140 l 60 485 l 179 425 l 179 140 l 119 81 l 60 140 m 60 515 l 60 860 l 119 919 l 179 860 l 179 585 l 60 515 m 139 939 l 200 1000 l 490 1000 l 551 939 l 490 881 l 200 881 l 139 939 m 510 585 l 510 860 l 569 919 l 629 860 l 629 515 l 510 585 m 510 140 l 510 425 l 629 485 l 629 140 l 569 81 l 510 140 m 139 61 l 200 119 l 490 119 l 551 61 l 490 0 l 200 0 l 139 61 m 264 1042 l 354 1242 l 485 1242 l 393 1042 l 264 1042 z "},"Ô":{"ha":689,"x_min":60,"x_max":629,"o":"m 60 140 l 60 485 l 179 425 l 179 140 l 119 81 l 60 140 m 60 515 l 60 860 l 119 919 l 179 860 l 179 585 l 60 515 m 139 939 l 200 1000 l 490 1000 l 551 939 l 490 881 l 200 881 l 139 939 m 510 585 l 510 860 l 569 919 l 629 860 l 629 515 l 510 585 m 510 140 l 510 425 l 629 485 l 629 140 l 569 81 l 510 140 m 139 61 l 200 119 l 490 119 l 551 61 l 490 0 l 200 0 l 139 61 m 68 1042 l 233 1042 l 319 1124 l 286 1263 l 68 1042 m 346 1128 l 436 1042 l 613 1042 l 383 1261 l 346 1128 z "},"":{"ha":414,"x_min":36,"x_max":378,"o":"m 36 375 l 36 665 l 107 631 l 107 447 l 36 375 m 36 685 l 36 964 l 107 890 l 107 726 l 36 685 m 47 975 l 365 975 l 294 903 l 119 903 l 47 975 m 306 726 l 306 890 l 378 964 l 378 685 l 306 726 m 306 447 l 306 631 l 378 665 l 378 375 l 306 447 z "},"Ò":{"ha":689,"x_min":60,"x_max":629,"o":"m 60 140 l 60 485 l 179 425 l 179 140 l 119 81 l 60 140 m 60 515 l 60 860 l 119 919 l 179 860 l 179 585 l 60 515 m 139 939 l 200 1000 l 490 1000 l 551 939 l 490 881 l 200 881 l 139 939 m 510 585 l 510 860 l 569 919 l 629 860 l 629 515 l 510 585 m 510 140 l 510 425 l 629 485 l 629 140 l 569 81 l 510 140 m 139 61 l 200 119 l 490 119 l 551 61 l 490 0 l 200 0 l 139 61 m 193 1244 l 324 1244 l 414 1044 l 283 1044 l 193 1244 z "},"Ú":{"ha":689,"x_min":60,"x_max":629,"o":"m 60 140 l 60 485 l 179 425 l 179 140 l 119 81 l 60 140 m 60 515 l 60 1000 l 179 885 l 179 585 l 60 515 m 510 585 l 510 885 l 629 1000 l 629 515 l 510 585 m 510 140 l 510 425 l 629 485 l 629 140 l 569 81 l 510 140 m 139 61 l 200 119 l 490 119 l 551 61 l 490 0 l 200 0 l 139 61 m 239 1042 l 329 1242 l 460 1242 l 368 1042 l 239 1042 z "},"Û":{"ha":689,"x_min":60,"x_max":629,"o":"m 60 140 l 60 485 l 179 425 l 179 140 l 119 81 l 60 140 m 60 515 l 60 1000 l 179 885 l 179 585 l 60 515 m 510 585 l 510 885 l 629 1000 l 629 515 l 510 585 m 510 140 l 510 425 l 629 485 l 629 140 l 569 81 l 510 140 m 139 61 l 200 119 l 490 119 l 551 61 l 490 0 l 200 0 l 139 61 m 68 1042 l 233 1042 l 319 1124 l 286 1263 l 68 1042 m 346 1128 l 383 1261 l 613 1042 l 436 1042 l 346 1128 z "},"Ù":{"ha":689,"x_min":60,"x_max":629,"o":"m 60 140 l 60 485 l 179 425 l 179 140 l 119 81 l 60 140 m 60 515 l 60 1000 l 179 885 l 179 585 l 60 515 m 510 585 l 510 885 l 629 1000 l 629 515 l 510 585 m 510 140 l 510 425 l 629 485 l 629 140 l 569 81 l 510 140 m 139 61 l 200 119 l 490 119 l 551 61 l 490 0 l 200 0 l 139 61 m 222 1240 l 353 1240 l 443 1040 l 313 1040 l 222 1240 z "},"ı":{"ha":239,"x_min":60,"x_max":179,"o":"m 60 585 l 60 881 l 179 1000 l 179 515 l 60 585 m 60 119 l 60 425 l 179 485 l 179 0 l 60 119 z "},"ˆ":{"ha":544,"x_min":0,"x_max":544,"o":"m 0 500 l 218 721 l 251 582 l 165 500 l 0 500 m 282 582 l 319 719 l 544 500 l 368 500 l 282 582 z "},"˜":{"ha":436,"x_min":0,"x_max":436,"o":"m 0 536 l 49 696 l 129 546 l 115 503 l 0 536 m 79 711 l 281 649 l 357 503 l 163 563 l 79 711 m 306 668 l 319 711 l 436 679 l 386 519 l 306 668 z "},"¯":{"ha":415,"x_min":0,"x_max":415,"o":"m 0 528 l 81 647 l 415 647 l 335 528 l 0 528 z "},"ˉ":{"ha":415,"x_min":0,"x_max":415,"o":"m 0 528 l 81 647 l 415 647 l 335 528 l 0 528 z "},"˘":{"ha":350,"x_min":0,"x_max":350,"o":"m 0 642 l 0 742 l 119 682 l 119 642 l 60 582 l 0 642 m 79 563 l 140 622 l 210 622 l 271 563 l 210 503 l 140 503 l 79 563 m 231 642 l 231 682 l 350 742 l 350 642 l 290 582 l 231 642 z "},"˙":{"ha":200,"x_min":29,"x_max":149,"o":"m 29 1050 l 29 1231 l 149 1231 l 149 1050 l 29 1050 z "},"˚":{"ha":689,"x_min":172,"x_max":532,"o":"m 172 1158 l 172 1269 l 226 1321 l 276 1271 l 276 1156 l 226 1107 l 172 1158 m 242 1336 l 294 1390 l 410 1390 l 461 1336 l 411 1289 l 293 1289 l 242 1336 m 431 1156 l 431 1272 l 478 1322 l 532 1271 l 532 1158 l 478 1107 l 431 1156 m 242 1088 l 303 1147 l 401 1147 l 461 1088 l 419 1049 l 283 1049 l 242 1088 z "},"¸":{"ha":257,"x_min":0,"x_max":257,"o":"m 0 -219 l 131 -35 l 257 -35 l 128 -219 l 0 -219 z "},"ʺ":{"ha":263,"x_min":46,"x_max":217,"o":"m 46 794 l 46 1000 l 104 1000 l 104 794 l 46 794 m 160 794 l 160 1000 l 217 1000 l 217 794 l 160 794 z "},"˛":{"ha":257,"x_min":-1,"x_max":256,"o":"m 256 -219 l 128 -219 l -1 -35 l 125 -35 l 256 -219 z "},"ˇ":{"ha":535,"x_min":0,"x_max":535,"o":"m 0 722 l 171 722 l 263 636 l 229 503 l 0 722 m 289 640 l 375 722 l 535 722 l 317 501 l 289 640 z "},"×":{"ha":690,"x_min":100,"x_max":590,"o":"m 100 660 l 224 706 l 331 600 l 332 514 l 244 515 l 100 660 m 358 401 l 363 483 l 446 483 l 590 340 l 468 293 l 358 401 m 101 343 l 244 486 l 331 486 l 329 403 l 224 297 l 101 343 m 358 514 l 358 603 l 464 707 l 588 660 l 443 517 l 358 514 z "}}}
